<svg width="19" height="18" viewBox="0 0 19 18" fill="none" xmlns="http://www.w3.org/2000/svg">
<g clip-path="url(#clip0_580_328)">
<path opacity="0.973" fill-rule="evenodd" clip-rule="evenodd" d="M12.7527 -0.0175781C12.8699 -0.0175781 12.9871 -0.0175781 13.1043 -0.0175781C13.1357 1.62468 12.4678 2.89616 11.1004 3.79688C10.5878 4.08045 10.0428 4.19179 9.46561 4.13086C9.43674 2.34298 10.2278 1.05978 11.8387 0.28125C12.1402 0.159279 12.4449 0.0596693 12.7527 -0.0175781Z" fill="black"/>
<path opacity="0.994" fill-rule="evenodd" clip-rule="evenodd" d="M13.0662 17.9821C12.9022 17.9821 12.7381 17.9821 12.574 17.9821C12.3783 17.9487 12.1791 17.9077 11.9764 17.859C11.5125 17.681 11.0438 17.5169 10.5701 17.3668C10.0165 17.2425 9.46574 17.2542 8.9178 17.402C8.34633 17.6181 7.77213 17.8115 7.19514 17.9821C6.96076 17.9821 6.7264 17.9821 6.49202 17.9821C6.0739 17.8608 5.69889 17.6557 5.36702 17.3668C2.90842 14.831 1.87131 11.8017 2.25569 8.27894C2.56211 6.77924 3.36484 5.63667 4.66389 4.8512C5.63986 4.32052 6.6594 4.21505 7.72249 4.5348C8.23812 4.72229 8.75372 4.90981 9.26936 5.0973C9.46993 5.15724 9.66916 5.15724 9.86702 5.0973C10.6107 4.79471 11.3724 4.54861 12.1522 4.35902C13.4387 4.19828 14.5989 4.50295 15.6326 5.27308C15.918 5.52311 16.1641 5.80436 16.3709 6.11683C14.5763 7.31678 14.0197 8.95155 14.701 11.0211C15.1258 11.9967 15.823 12.7057 16.7928 13.1481C16.8125 13.1736 16.8242 13.2029 16.828 13.236C16.2938 14.774 15.4734 16.1334 14.367 17.3141C13.9921 17.6597 13.5585 17.8824 13.0662 17.9821Z" fill="black"/>
</g>
<defs>
<clipPath id="clip0_580_328">
<rect width="18" height="18" fill="white" transform="translate(0.5)"/>
</clipPath>
</defs>
</svg>
