<svg width="24" height="24" viewBox="0 0 24 24" fill="none" xmlns="http://www.w3.org/2000/svg">
<g clip-path="url(#clip0_562_4260)">
<path d="M1.23256 0.25782C0.754439 0.403133 0.388814 0.740633 0.149751 1.25157L0.0231888 1.52345L0.00912627 12.3047C-0.000248726 20.6953 0.00912627 23.1328 0.0560013 23.2969C0.126314 23.5594 0.421626 23.8641 0.684126 23.9438C0.820064 23.9813 1.3685 24 2.5685 24H4.26069L4.27475 21.1266L4.28881 18.2578L4.43881 17.9766C4.60756 17.6438 4.90288 17.3578 5.25913 17.1703L5.50756 17.0391H7.24194H8.97631L9.2435 17.1703C9.76381 17.4234 10.106 17.8828 10.2185 18.4688C10.2466 18.6141 10.2654 19.7813 10.2654 21.3563V24H12.3748H14.4841L14.4748 13.5563L14.4607 3.1172L14.3341 2.85469C14.1701 2.52188 13.8466 2.19376 13.5232 2.03907C13.2373 1.89845 13.2794 1.90313 8.60131 1.19532C6.79663 0.923447 4.56538 0.581259 3.64194 0.440634C1.8935 0.178133 1.56538 0.150009 1.23256 0.25782ZM5.84038 4.34063C6.07475 4.45313 6.20131 4.65938 6.22475 4.96407C6.23881 5.1797 6.22475 5.25469 6.131 5.38594C5.91538 5.70469 5.79819 5.74219 4.84663 5.75626C4.331 5.76563 3.92319 5.75157 3.81069 5.72344C3.55756 5.65313 3.29975 5.37188 3.25756 5.11407C3.21538 4.86563 3.37475 4.52345 3.60444 4.37344C3.75444 4.27032 3.806 4.26563 4.72006 4.26563C5.50756 4.26563 5.70913 4.27969 5.84038 4.34063ZM10.8748 4.36876C11.0998 4.52345 11.2123 4.69688 11.2357 4.93126C11.2685 5.20313 11.1279 5.48438 10.8888 5.62969C10.7154 5.73751 10.6779 5.74219 9.74975 5.74219C8.82163 5.74219 8.78413 5.73751 8.61069 5.62969C8.37163 5.48438 8.231 5.20313 8.26381 4.93126C8.28725 4.69688 8.39975 4.52345 8.62475 4.36876C8.77475 4.27032 8.82163 4.26563 9.74975 4.26563C10.6779 4.26563 10.7248 4.27032 10.8748 4.36876ZM5.84038 7.34063C6.07475 7.45313 6.20131 7.65938 6.22475 7.96407C6.23881 8.17969 6.22475 8.25469 6.131 8.38594C5.91538 8.70469 5.79819 8.74219 4.84663 8.75626C4.331 8.76563 3.92319 8.75157 3.81069 8.72344C3.55756 8.65313 3.29975 8.37188 3.25756 8.11407C3.21538 7.86563 3.37475 7.52344 3.60444 7.37344C3.75444 7.27032 3.806 7.26563 4.72006 7.26563C5.50756 7.26563 5.70913 7.27969 5.84038 7.34063ZM10.8748 7.36876C11.0998 7.52344 11.2123 7.69688 11.2357 7.93126C11.2685 8.20313 11.1279 8.48438 10.8888 8.62969C10.7154 8.73751 10.6779 8.74219 9.74975 8.74219C8.82163 8.74219 8.78413 8.73751 8.61069 8.62969C8.37163 8.48438 8.231 8.20313 8.26381 7.93126C8.28725 7.69688 8.39975 7.52344 8.62475 7.36876C8.77475 7.27032 8.82163 7.26563 9.74975 7.26563C10.6779 7.26563 10.7248 7.27032 10.8748 7.36876ZM5.84038 10.3406C6.07475 10.4531 6.20131 10.6594 6.22475 10.9641C6.23881 11.1797 6.22475 11.2547 6.131 11.3859C5.91538 11.7047 5.79819 11.7422 4.84663 11.7563C4.331 11.7656 3.92319 11.7516 3.81069 11.7234C3.55756 11.6531 3.29975 11.3719 3.25756 11.1141C3.21538 10.8656 3.37475 10.5234 3.60444 10.3734C3.75444 10.2703 3.806 10.2656 4.72006 10.2656C5.50756 10.2656 5.70913 10.2797 5.84038 10.3406ZM10.8748 10.3688C11.0998 10.5234 11.2123 10.6969 11.2357 10.9313C11.2685 11.2031 11.1279 11.4844 10.8888 11.6297C10.7154 11.7375 10.6779 11.7422 9.74975 11.7422C8.82163 11.7422 8.78413 11.7375 8.61069 11.6297C8.37163 11.4844 8.231 11.2031 8.26381 10.9313C8.28725 10.6969 8.39975 10.5234 8.62475 10.3688C8.77475 10.2703 8.82163 10.2656 9.74975 10.2656C10.6779 10.2656 10.7248 10.2703 10.8748 10.3688ZM5.84038 13.3406C6.07475 13.4531 6.20131 13.6594 6.22475 13.9641C6.23881 14.1797 6.22475 14.2547 6.131 14.3859C5.91538 14.7047 5.79819 14.7422 4.84663 14.7563C4.331 14.7656 3.92319 14.7516 3.81069 14.7234C3.55756 14.6531 3.29975 14.3719 3.25756 14.1141C3.21538 13.8656 3.37475 13.5234 3.60444 13.3734C3.75444 13.2703 3.806 13.2656 4.72006 13.2656C5.50756 13.2656 5.70913 13.2797 5.84038 13.3406ZM10.8748 13.3688C11.0998 13.5234 11.2123 13.6969 11.2357 13.9313C11.2685 14.2031 11.1279 14.4844 10.8888 14.6297C10.7154 14.7375 10.6779 14.7422 9.74975 14.7422C8.82163 14.7422 8.78413 14.7375 8.61069 14.6297C8.37163 14.4844 8.231 14.2031 8.26381 13.9313C8.28725 13.6969 8.39975 13.5234 8.62475 13.3688C8.77475 13.2703 8.82163 13.2656 9.74975 13.2656C10.6779 13.2656 10.7248 13.2703 10.8748 13.3688Z" fill="#192734"/>
<path d="M15.5156 16.6875V24.0046L19.0922 23.9906L22.6641 23.9765L22.9781 23.8265C23.3625 23.6437 23.6438 23.3625 23.8313 22.9687L23.9766 22.664V17.3906V12.1171L23.8547 11.8593C23.6391 11.3953 23.2547 11.0484 22.8 10.9031C22.5797 10.8281 15.6938 9.37496 15.5766 9.37496C15.5297 9.37496 15.5156 10.8703 15.5156 16.6875ZM20.6531 13.6218C20.9016 13.8046 20.9766 13.9546 20.9766 14.25C20.9766 14.5453 20.9016 14.6953 20.6531 14.8781C20.5359 14.9671 20.4469 14.9765 19.6031 14.9906C18.5578 15.0093 18.4031 14.9812 18.1922 14.7421C17.9484 14.4656 17.9391 14.0531 18.1734 13.7765C18.3938 13.5187 18.4875 13.5 19.5563 13.514C20.4516 13.5234 20.5359 13.5328 20.6531 13.6218ZM20.6531 16.6218C20.9016 16.8046 20.9766 16.9546 20.9766 17.25C20.9766 17.5453 20.9016 17.6953 20.6531 17.8781C20.5359 17.9671 20.4469 17.9765 19.6031 17.9906C18.5578 18.0093 18.4031 17.9812 18.1922 17.7421C17.9484 17.4656 17.9391 17.0531 18.1734 16.7765C18.3938 16.5187 18.4875 16.5 19.5563 16.514C20.4516 16.5234 20.5359 16.5328 20.6531 16.6218ZM20.6531 19.6218C20.9016 19.8046 20.9766 19.9546 20.9766 20.25C20.9766 20.5453 20.9016 20.6953 20.6531 20.8781C20.5359 20.9671 20.4469 20.9765 19.6031 20.9906C18.5578 21.0093 18.4031 20.9812 18.1922 20.7421C17.9484 20.4656 17.9391 20.0531 18.1734 19.7765C18.3938 19.5187 18.4875 19.5 19.5563 19.514C20.4516 19.5234 20.5359 19.5328 20.6531 19.6218Z" fill="#192734"/>
</g>
<defs>
<clipPath id="clip0_562_4260">
<rect width="24" height="24" fill="white"/>
</clipPath>
</defs>
</svg>
