<svg width="20" height="20" viewBox="0 0 20 20" fill="none" xmlns="http://www.w3.org/2000/svg">
<g clip-path="url(#clip0_562_4199)">
<path d="M9.7373 0.468507C9.49121 0.616945 9.49121 0.616945 9.49121 2.30444V3.82788H9.99902H10.5068V3.39819V2.96851L11.8896 2.96069L13.2764 2.94897L12.9912 2.44507L12.7061 1.94116L12.9912 1.42944L13.2803 0.917726L11.8936 0.906007C10.6084 0.898195 10.5068 0.890382 10.5068 0.827882C10.5068 0.718507 10.3623 0.515382 10.2373 0.448976C10.0771 0.370851 9.88965 0.374757 9.7373 0.468507Z" fill="#192734"/>
<path d="M4.7338 4.55838C4.2963 4.77322 4.26505 5.3865 4.67521 5.66385L4.81974 5.7615L9.8588 5.77322C12.6322 5.78103 14.976 5.77322 15.0697 5.7615C15.3627 5.71853 15.6244 5.41385 15.6244 5.11697C15.6244 4.949 15.4955 4.71072 15.3432 4.60135L15.2143 4.5115L10.0385 4.50369C5.30411 4.49588 4.85099 4.49979 4.7338 4.55838Z" fill="#192734"/>
<path d="M5.19434 13.0271V19.6091H6.22949H7.26465V17.4255V15.2419L7.38574 15.1404L7.50684 15.0388H10.0068H12.5068L12.6201 15.1521L12.7334 15.2654V17.4373V19.6091H13.7686H14.8037V13.0271V6.44507H9.99902H5.19434V13.0271ZM7.9209 8.66773C7.92871 9.13257 7.91699 9.36304 7.88574 9.3982C7.81543 9.48413 6.58887 9.47632 6.50684 9.39038C6.45605 9.3396 6.44434 9.22242 6.44434 8.72632C6.44434 8.37867 6.45996 8.0857 6.4834 8.04273C6.52246 7.97242 6.56543 7.96851 7.21777 7.97632L7.90918 7.98804L7.9209 8.66773ZM10.6943 8.01538C10.7607 8.08179 10.7607 9.3396 10.6943 9.40601C10.6279 9.47242 9.37012 9.47242 9.30371 9.40601C9.27246 9.37476 9.25684 9.16382 9.25684 8.7107C9.25684 8.25757 9.27246 8.04663 9.30371 8.01538C9.37012 7.94898 10.6279 7.94898 10.6943 8.01538ZM13.5146 8.04273C13.5381 8.0857 13.5537 8.38257 13.5537 8.72632C13.5537 9.22242 13.542 9.3396 13.4912 9.39038C13.4404 9.44117 13.3193 9.45288 12.7959 9.45288C12.3545 9.45288 12.1475 9.43726 12.1162 9.40601C12.0654 9.35523 12.0459 8.04273 12.0967 7.99585C12.1084 7.98023 12.4248 7.96851 12.7959 7.96851C13.4248 7.96851 13.4756 7.97242 13.5146 8.04273ZM7.88574 11.1482C7.91699 11.1834 7.92871 11.4138 7.9209 11.8787L7.90918 12.5584L7.22559 12.5701C6.61621 12.5779 6.53809 12.574 6.49512 12.5115C6.45996 12.4646 6.44434 12.2654 6.44434 11.8396C6.44434 11.3318 6.45605 11.2263 6.51074 11.1638C6.56543 11.1013 6.64355 11.0935 7.20605 11.0935C7.69824 11.0935 7.85059 11.1052 7.88574 11.1482ZM10.667 11.1326C10.7373 11.1716 10.7412 11.2224 10.7412 11.8279C10.7412 12.2849 10.7256 12.4998 10.6943 12.531C10.6279 12.5974 9.37012 12.5974 9.30371 12.531C9.27246 12.4998 9.25684 12.2849 9.25684 11.8279C9.25684 11.2498 9.26465 11.1716 9.32715 11.1365C9.41699 11.0818 10.5693 11.0818 10.667 11.1326ZM13.4834 11.1599C13.5459 11.2146 13.5537 11.2927 13.5537 11.8357C13.5537 12.2615 13.5381 12.4646 13.5029 12.5115C13.46 12.574 13.3818 12.5779 12.7725 12.5701L12.0889 12.5584L12.0771 11.8787C12.0693 11.4138 12.0811 11.1834 12.1123 11.1482C12.1475 11.1052 12.2998 11.0935 12.7842 11.0935C13.3115 11.0935 13.4209 11.1052 13.4834 11.1599Z" fill="#192734"/>
<path d="M0.479492 11.2263L0.370117 11.3201V15.3709V19.4216L0.479492 19.5154L0.588867 19.6091H2.56152H4.53027V15.3709V11.1326H2.56152H0.588867L0.479492 11.2263ZM3.11621 13.1091C3.19824 13.1677 3.20215 13.1912 3.20215 13.7849C3.20215 14.2146 3.18652 14.4177 3.15137 14.4646C3.1084 14.5271 3.03027 14.531 2.4209 14.5232L1.7373 14.5115L1.72559 13.8279C1.71777 13.2185 1.72168 13.1404 1.78418 13.0974C1.88965 13.0193 3.00293 13.0271 3.11621 13.1091ZM3.16309 16.2849C3.18652 16.3279 3.20215 16.6248 3.20215 16.9685C3.20215 17.4646 3.19043 17.5818 3.13965 17.6326C3.08887 17.6834 2.96777 17.6951 2.44434 17.6951C2.00293 17.6951 1.7959 17.6794 1.76465 17.6482C1.71387 17.5974 1.69434 16.2849 1.74512 16.238C1.75684 16.2224 2.07324 16.2107 2.44434 16.2107C3.07324 16.2107 3.12402 16.2146 3.16309 16.2849Z" fill="#192734"/>
<path d="M15.4678 15.3709V19.6091H17.4365H19.4092L19.5186 19.5154L19.6279 19.4216V15.3709V11.3201L19.5186 11.2263L19.4092 11.1326H17.4365H15.4678V15.3709ZM18.2139 13.0974C18.2764 13.1404 18.2803 13.2185 18.2725 13.8279L18.2607 14.5115L17.5771 14.5232C16.9678 14.531 16.8896 14.5271 16.8467 14.4646C16.8115 14.4177 16.7959 14.2146 16.7959 13.7849C16.7959 12.9998 16.749 13.0466 17.5576 13.0466C17.9717 13.0466 18.167 13.0623 18.2139 13.0974ZM18.2725 16.9099C18.2803 17.3748 18.2686 17.6052 18.2373 17.6404C18.167 17.7263 16.9404 17.7185 16.8584 17.6326C16.8076 17.5818 16.7959 17.4646 16.7959 16.9685C16.7959 16.6209 16.8115 16.3279 16.835 16.2849C16.874 16.2146 16.917 16.2107 17.5693 16.2185L18.2607 16.2302L18.2725 16.9099Z" fill="#192734"/>
<path d="M7.92871 17.656V19.6091H9.99902H12.0693V17.656V15.7029H9.99902H7.92871V17.656Z" fill="#192734"/>
</g>
<defs>
<clipPath id="clip0_562_4199">
<rect width="20" height="20" fill="white"/>
</clipPath>
</defs>
</svg>
