<svg width="19" height="18" viewBox="0 0 19 18" fill="none" xmlns="http://www.w3.org/2000/svg">
<path d="M6.30977 0.0421815C6.28516 0.0667906 6.26758 0.11601 6.26758 0.154682C6.26758 0.196869 6.43984 0.544916 6.6543 0.931635C6.86523 1.31484 7.03047 1.64179 7.02344 1.65586C7.01641 1.6664 6.88281 1.74726 6.73164 1.83867C5.81758 2.36953 5.05117 3.30117 4.7207 4.28203C4.59766 4.65117 4.50977 5.1293 4.50977 5.43516V5.66016H9.50195H14.4941V5.47383C14.4941 5.18906 14.3957 4.65469 14.2797 4.31015C13.9387 3.29062 13.2145 2.40468 12.2512 1.82461C12.093 1.72617 11.984 1.64179 11.991 1.61367C11.998 1.58554 12.1703 1.2621 12.3742 0.889448C12.5957 0.478119 12.7363 0.182806 12.7293 0.137103C12.7152 0.0316343 12.6133 -0.0281315 12.5359 0.0210876C12.5008 0.0421815 12.2969 0.383197 12.0789 0.776948C11.8539 1.18476 11.6641 1.49062 11.6395 1.4871C11.6148 1.48359 11.4355 1.42734 11.2422 1.35703C10.1383 0.970307 8.87969 0.970307 7.76172 1.36054C7.56836 1.42734 7.38906 1.48359 7.36445 1.4871C7.33633 1.49062 7.15703 1.20234 6.93906 0.801557C6.73164 0.421869 6.5418 0.0878844 6.51719 0.0562439C6.46094 -0.0105529 6.36953 -0.0175843 6.30977 0.0421815ZM7.43828 3.06562C7.52266 3.11133 7.63867 3.30468 7.63867 3.40312C7.63867 3.5332 7.54023 3.70547 7.43125 3.77226C7.01992 4.01484 6.60508 3.4664 6.93906 3.1289C7.07969 2.99179 7.25195 2.9707 7.43828 3.06562ZM12.0191 3.0832C12.1 3.13593 12.1668 3.25195 12.1773 3.35742C12.1914 3.52969 12.1668 3.6 12.0543 3.7125C11.9629 3.8039 11.9066 3.83203 11.8047 3.83203C11.6359 3.83203 11.4848 3.74062 11.418 3.6C11.3441 3.44531 11.3512 3.33633 11.4461 3.1957C11.5762 3.00234 11.8223 2.95312 12.0191 3.0832Z" fill="#4CAF50"/>
<path d="M2.59023 5.90647C2.3582 5.99788 2.10156 6.24749 1.98555 6.4971L1.89062 6.69749V9.2639V11.8303L1.98555 12.0307C2.38281 12.8815 3.54648 12.9166 3.98945 12.0905L4.07031 11.9358V9.2639V6.59202L3.99297 6.44788C3.89102 6.25452 3.65898 6.03303 3.46211 5.9346C3.23008 5.8221 2.83633 5.81155 2.59023 5.90647Z" fill="#4CAF50"/>
<path d="M15.5945 5.91001C15.3801 5.99087 15.134 6.21939 15.0145 6.43736L14.9336 6.59204V9.26392V11.9358L15.0109 12.0799C15.4574 12.9131 16.6176 12.885 17.0184 12.0307L17.1133 11.8303V9.26392V6.69751L16.9973 6.46197C16.7371 5.93462 16.1395 5.69907 15.5945 5.91001Z" fill="#4CAF50"/>
<path d="M4.54492 9.75597C4.54492 13.4614 4.54492 13.4614 4.61875 13.6653C4.71367 13.9079 4.94922 14.1751 5.19531 14.3017C5.36055 14.3896 5.40625 14.3966 5.94414 14.4071L6.51367 14.4212L6.51719 14.7763C6.5207 14.9732 6.53125 15.6025 6.54531 16.172C6.56641 17.2056 6.56992 17.2091 6.66133 17.3849C6.78086 17.6099 6.97773 17.7997 7.19922 17.9017C7.44883 18.0142 7.8707 18.0142 8.10273 17.9017C8.33125 17.7892 8.54219 17.5712 8.65117 17.3392L8.74609 17.1388L8.75664 15.7747L8.76719 14.4142H9.50195H10.2367L10.2473 15.7747L10.2578 17.1388L10.3527 17.3392C10.4617 17.5712 10.6727 17.7892 10.9012 17.9017C11.1437 18.0212 11.5551 18.0177 11.8258 17.8911C12.0402 17.7892 12.2512 17.5923 12.3531 17.3989C12.4656 17.1775 12.4902 16.8575 12.4902 15.62V14.4212L13.0633 14.4071C13.5977 14.3966 13.6434 14.3896 13.8086 14.3017C14.0547 14.1751 14.2902 13.9079 14.3852 13.6653C14.459 13.4614 14.459 13.4614 14.459 9.75597V6.04698H9.50195H4.54492V9.75597Z" fill="#4CAF50"/>
</svg>







