<svg width="70" height="70" viewBox="0 0 70 70" fill="none" xmlns="http://www.w3.org/2000/svg">
<path fill-rule="evenodd" clip-rule="evenodd" d="M31.9922 0C33.9974 0 36.0026 0 38.0078 0C50.5472 1.51639 59.9125 7.75988 66.1035 18.7305C68.2242 22.926 69.523 27.3466 70 31.9922C70 33.9974 70 36.0026 70 38.0078C68.2935 51.7214 61.1841 61.4968 48.6719 67.334C45.2283 68.7418 41.6737 69.6304 38.0078 70C36.0026 70 33.9974 70 31.9922 70C18.2786 68.2935 8.50318 61.1841 2.66602 48.6719C1.25827 45.2283 0.369595 41.6737 0 38.0078C0 36.0026 0 33.9974 0 31.9922C1.70654 18.2786 8.81591 8.50318 21.3281 2.66602C24.7717 1.25827 28.3263 0.369595 31.9922 0ZM27.0703 22.5586C27.5408 22.5314 27.9964 22.5997 28.4375 22.7637C35.1822 26.1361 41.9271 29.5084 48.6719 32.8809C49.9315 33.7379 50.2277 34.8545 49.5605 36.2305C49.3555 36.6178 49.0592 36.9141 48.6719 37.1191C41.9271 40.4916 35.1822 43.8639 28.4375 47.2363C26.5854 47.7103 25.4689 47.0039 25.0879 45.1172C24.9967 38.3724 24.9967 31.6276 25.0879 24.8828C25.2924 23.6998 25.9533 22.925 27.0703 22.5586Z" fill="white" fill-opacity="0.5"/>
<path fill-rule="evenodd" clip-rule="evenodd" d="M32.6252 7.36816C34.2082 7.36816 35.7912 7.36816 37.3743 7.36816C47.2739 8.56531 54.6675 13.4944 59.5551 22.1554C61.2293 25.4676 62.2547 28.9576 62.6313 32.6252C62.6313 34.2082 62.6313 35.7912 62.6313 37.3743C61.2841 48.2008 55.6714 55.9183 45.7933 60.5266C43.0747 61.638 40.2684 62.3396 37.3743 62.6313C35.7912 62.6313 34.2082 62.6313 32.6252 62.6313C21.7986 61.2841 14.0812 55.6714 9.47291 45.7933C8.36153 43.0747 7.65995 40.2684 7.36816 37.3743C7.36816 35.7912 7.36816 34.2082 7.36816 32.6252C8.71543 21.7986 14.3281 14.0812 24.2062 9.47291C26.9247 8.36153 29.7311 7.65995 32.6252 7.36816ZM28.7395 25.1776C29.1109 25.1561 29.4706 25.2101 29.8188 25.3395C35.1436 28.0019 40.4685 30.6643 45.7933 33.3267C46.7877 34.0034 47.0216 34.8849 46.4949 35.9712C46.333 36.2769 46.0991 36.5108 45.7933 36.6727C40.4685 39.3352 35.1436 41.9975 29.8188 44.66C28.3566 45.0342 27.4752 44.4765 27.1744 42.987C27.1024 37.6622 27.1024 32.3373 27.1744 27.0125C27.3359 26.0785 27.8576 25.4668 28.7395 25.1776Z" fill="white"/>
</svg>
