<svg width="20" height="20" viewBox="0 0 20 20" fill="none" xmlns="http://www.w3.org/2000/svg">
<g clip-path="url(#clip0_562_4209)">
<path d="M7.38281 1.01197C5.85938 1.469 4.5625 2.23071 3.46094 3.31275C2.69922 4.06275 2.11328 4.85962 1.64453 5.77368L1.40234 6.25024H3.375H5.35156L5.36719 6.1604C5.80469 4.05493 6.625 2.24243 7.60547 1.21118C7.78906 1.01587 7.92188 0.859622 7.90625 0.863528C7.88672 0.863528 7.65234 0.929934 7.38281 1.01197Z" fill="#192734"/>
<path d="M12.3991 1.21118C13.3757 2.23853 14.1921 4.05103 14.6335 6.1604L14.6491 6.25024H16.6218H18.5944L18.3952 5.85571C17.6608 4.38696 16.5319 3.10571 15.1882 2.21509C14.364 1.66431 13.489 1.25806 12.5671 0.992434C12.3132 0.918215 12.0944 0.859621 12.0827 0.859621C12.071 0.859621 12.2116 1.01978 12.3991 1.21118Z" fill="#192734"/>
<path d="M9.53223 1.34009C8.44629 1.70728 7.37988 3.37134 6.79785 5.59009C6.71191 5.92212 6.6416 6.20337 6.6416 6.21899C6.6416 6.23853 8.15332 6.25024 10.001 6.25024C11.8486 6.25024 13.3604 6.23853 13.3604 6.21899C13.3604 6.20337 13.29 5.92212 13.2041 5.59009C12.5283 3.01587 11.2197 1.24634 9.98535 1.25025C9.87598 1.25025 9.67285 1.29321 9.53223 1.34009Z" fill="#192734"/>
<path d="M0.965271 7.52759C0.926209 7.59009 0.746521 8.469 0.69574 8.82837C0.668396 9.03931 0.644959 9.55103 0.648865 10.0198C0.648865 10.8909 0.703552 11.4104 0.871521 12.1096L0.961365 12.4807L3.06293 12.4924L5.16449 12.5002L5.14105 12.3752C4.9809 11.4573 4.9809 8.54321 5.14105 7.62525L5.16449 7.50025H3.07465C1.9223 7.50025 0.973084 7.51196 0.965271 7.52759Z" fill="#192734"/>
<path d="M6.37207 7.89868C6.29785 8.55884 6.25098 9.35571 6.25098 10.0002C6.25098 10.6448 6.29785 11.4417 6.37207 12.0979L6.41895 12.5002H10.001H13.583L13.6299 12.0979C13.7861 10.7112 13.7861 9.28931 13.6299 7.89868L13.583 7.50025H10.001H6.41895L6.37207 7.89868Z" fill="#192734"/>
<path d="M14.8594 7.62525C15.0195 8.5354 15.0195 11.3088 14.8594 12.3557L14.8359 12.5002L16.9375 12.4924L19.0391 12.4807L19.1289 12.1096C19.3008 11.4026 19.3516 10.8948 19.3516 10.0002C19.3516 9.10571 19.3008 8.5979 19.1289 7.89087L19.0391 7.51978L16.9375 7.50806L14.8359 7.50025L14.8594 7.62525Z" fill="#192734"/>
<path d="M1.60645 14.1448C2.05176 15.0355 2.59863 15.805 3.29785 16.5198C3.84082 17.0745 4.21582 17.387 4.8252 17.7933C5.61426 18.3206 6.50488 18.7347 7.37598 18.9886C7.60645 19.0511 7.8291 19.1175 7.87207 19.1292C7.91504 19.1409 7.80176 18.9964 7.61035 18.7933C6.61816 17.7542 5.83691 16.0238 5.36816 13.8363L5.35254 13.7503H3.37988H1.40723L1.60645 14.1448Z" fill="#192734"/>
<path d="M6.6416 13.7776C6.6416 13.7971 6.71191 14.0784 6.79785 14.4104C7.46973 16.9729 8.77832 18.7502 10.001 18.7502C11.2627 18.7502 12.5752 16.9143 13.2588 14.1917C13.3135 13.9729 13.3604 13.7854 13.3604 13.7737C13.3604 13.762 11.8486 13.7502 10.001 13.7502C8.15332 13.7502 6.6416 13.762 6.6416 13.7776Z" fill="#192734"/>
<path d="M14.6335 13.8362C14.1647 16.0159 13.3796 17.7542 12.3991 18.7893C12.2116 18.9807 12.071 19.1409 12.0827 19.1409C12.0944 19.1409 12.3171 19.0784 12.5749 19.0042C13.6726 18.6877 14.7312 18.1565 15.7038 17.426C16.0671 17.1565 16.8757 16.3713 17.2155 15.969C17.5788 15.5315 18.0788 14.7698 18.3562 14.2229L18.5983 13.7502H16.6257H14.6491L14.6335 13.8362Z" fill="#192734"/>
</g>
<defs>
<clipPath id="clip0_562_4209">
<rect width="20" height="20" fill="white"/>
</clipPath>
</defs>
</svg>
