<svg width="650" height="652" viewBox="0 0 650 652" fill="none" xmlns="http://www.w3.org/2000/svg">
<g clip-path="url(#clip0_638_921)">
<path d="M561.876 515.317H616.482V497.938H561.876V515.317Z" fill="#EBEBEB"/>
<path d="M122.413 317.313H177.02V299.934H122.413V317.313Z" fill="#EBEBEB"/>
<path d="M592.332 537.23C601.402 537.075 624.652 536.687 633.411 536.594L646.938 536.532L646.224 537.246L646.162 519.867L646.938 520.643C637.868 520.612 614.743 520.535 605.983 520.41L592.332 520.24L592.704 519.867L592.332 537.246V537.23ZM592.332 537.23L591.959 519.851V519.494H592.332C599.15 519.401 612.817 519.246 619.635 519.199L646.938 519.09H647.715V519.867L647.653 537.246V537.96H646.938L633.163 537.898C624.465 537.805 601.309 537.417 592.332 537.261V537.23Z" fill="#EBEBEB"/>
<path d="M459.575 175.95C468.645 175.795 491.895 175.406 500.654 175.313L514.182 175.251L513.467 175.965L513.405 158.586L514.182 159.363C505.112 159.332 481.986 159.254 473.227 159.13L459.575 158.959L459.948 158.586L459.575 175.965V175.95ZM459.575 175.95L459.202 158.571V158.214H459.575C466.393 158.12 480.06 157.965 486.878 157.919L514.182 157.81H514.958V158.586L514.896 175.965V176.68H514.182L500.406 176.618C491.708 176.525 468.552 176.136 459.575 175.981V175.95Z" fill="#EBEBEB"/>
<path d="M490.031 197.864C499.101 197.709 522.351 197.32 531.11 197.227L544.638 197.165L543.923 197.88L543.861 180.5L544.638 181.277C535.568 181.246 512.442 181.168 503.683 181.044L490.031 180.873L490.404 180.5L490.031 197.88V197.864ZM490.031 197.864L489.658 180.485V180.128H490.031C496.849 180.034 510.516 179.879 517.334 179.833L544.638 179.724H545.414V180.5L545.352 197.88V198.594H544.638L530.862 198.532C522.164 198.439 499.008 198.05 490.031 197.895V197.864Z" fill="#EBEBEB"/>
<path d="M520.378 175.95H574.984V158.571H520.378V175.95Z" fill="#EBEBEB"/>
<path d="M4.45677 537.23H59.0635V519.851H4.45677V537.23Z" fill="#EBEBEB"/>
<path d="M34.9118 18.1555L89.5186 18.1555V0.7764L34.9118 0.7764V18.1555Z" fill="#EBEBEB"/>
<path d="M4.45673 40.0698C13.5268 39.9145 36.7766 39.5262 45.536 39.4331L59.0634 39.3709L58.349 40.0854L58.2869 22.7062L59.0634 23.4828C49.9934 23.4517 26.8678 23.3741 18.1084 23.2498L4.45673 23.079L4.82947 22.7062L4.45673 40.0854V40.0698ZM4.45673 40.0698L4.08398 22.6907V22.3335H4.45673C11.2748 22.2403 24.942 22.085 31.7601 22.0384L59.0634 21.9297H59.84V22.7062L59.7779 40.0854V40.7998H59.0634L45.2875 40.7377C36.5902 40.6445 13.4336 40.2562 4.45673 40.1009V40.0698Z" fill="#EBEBEB"/>
<path d="M561.877 18.1557C570.947 18.0004 594.196 17.6121 602.956 17.5189L616.483 17.4568L615.769 18.1712L615.707 0.792078L616.483 1.56862L589.18 1.45991C582.377 1.41332 568.679 1.24248 561.877 1.16482L562.249 0.792078L561.877 18.1712V18.1557ZM561.877 18.1557L561.504 0.776547V0.419335H561.877C568.695 0.32615 582.362 0.17084 589.18 0.124247L616.483 0H617.26V0.776547L617.198 18.1557V18.8701H616.483L602.707 18.808C594.01 18.7148 570.854 18.3265 561.877 18.1712V18.1557Z" fill="#EBEBEB"/>
<path d="M226.938 378.846H0V392.7H226.938V378.846Z" fill="#EBEBEB"/>
<path d="M206.702 392.699H20.2373V430.921H206.702V392.699Z" fill="#EBEBEB"/>
<path d="M206.702 400.247L20.2373 403.959V392.699H206.702V400.247Z" fill="#C7C7C7"/>
<path d="M177.845 400.713H49.1094V422.923H177.845V400.713Z" stroke="#DBDBDB" stroke-width="1.55309" stroke-miterlimit="10"/>
<path d="M134.7 408.603H92.2539V415.017H134.7V408.603Z" fill="#DBDBDB"/>
<path d="M18.7301 650.777H12.5488L30.5181 430.937H46.2665L18.7301 650.777Z" fill="#EBEBEB"/>
<path d="M46.2665 430.937L44.4183 445.645H29.3223L30.5181 430.937H46.2665Z" fill="#C7C7C7"/>
<path d="M208.208 650.777H214.389L196.42 430.937H180.672L208.208 650.777Z" fill="#EBEBEB"/>
<path d="M180.672 430.937L182.52 445.645H197.616L196.42 430.937H180.672Z" fill="#C7C7C7"/>
<path d="M34.8046 179.926C36.1714 179.072 37.8953 179.118 39.2776 179.957C39.6503 180.19 40.0386 180.407 40.4268 180.609C40.8151 180.827 41.2189 181.013 41.6072 181.215C43.0671 181.898 44.0455 183.296 44.0921 184.911L44.263 190.409L62.1857 189.85L62.0148 184.352C61.9682 182.737 62.8535 181.262 64.2668 180.485C65.0434 180.066 65.8044 179.584 66.5343 179.087C67.8544 178.171 69.5628 178.047 70.9762 178.808L75.8063 181.401L84.2862 165.591L79.456 162.997C78.0427 162.236 77.2041 160.745 77.2351 159.13C77.2506 158.229 77.2351 157.344 77.1419 156.459C77.0022 154.843 77.7476 153.29 79.1144 152.452L83.7892 149.547L74.3464 134.312L69.6405 137.216C68.2738 138.07 66.5654 138.008 65.1831 137.185C64.8104 136.952 64.4221 136.734 64.0338 136.532C63.6456 136.331 63.2573 136.129 62.8535 135.942C61.3936 135.259 60.3996 133.846 60.353 132.23L60.1822 126.732L42.2595 127.292L42.4303 132.774C42.4769 134.389 41.6072 135.865 40.1783 136.641C39.4018 137.076 38.6408 137.542 37.8953 138.054C36.5752 138.971 34.8668 139.095 33.4379 138.334L28.6078 135.74L20.1279 151.551L24.958 154.145C26.3714 154.906 27.21 156.397 27.179 158.012C27.1634 158.913 27.179 159.798 27.2566 160.699C27.3964 162.314 26.6509 163.851 25.2842 164.706L20.6249 167.594L30.0677 182.83L34.7425 179.926H34.8046ZM39.2931 151.629C43.1292 144.484 52.044 141.797 59.1882 145.618C66.3324 149.454 69.0193 158.353 65.1831 165.498C61.347 172.642 52.4633 175.329 45.3035 171.493C38.1593 167.656 35.4569 158.757 39.2931 151.613V151.629Z" stroke="#EBEBEB" stroke-width="1.55309" stroke-miterlimit="10"/>
<path d="M581.727 239.705C583.093 238.85 584.817 238.897 586.199 239.736C586.572 239.969 586.96 240.186 587.349 240.388C587.737 240.605 588.141 240.792 588.529 240.994C589.989 241.677 590.967 243.075 591.014 244.69L591.185 250.188L609.108 249.629L608.937 244.131C608.89 242.516 609.775 241.04 611.189 240.264C611.965 239.844 612.726 239.363 613.456 238.866C614.776 237.95 616.485 237.825 617.898 238.586L622.728 241.18L631.208 225.37L626.378 222.776C624.965 222.015 624.126 220.524 624.157 218.909C624.173 218.024 624.157 217.123 624.064 216.237C623.924 214.622 624.67 213.069 626.036 212.23L630.711 209.326L621.268 194.09L616.562 196.995C615.196 197.849 613.487 197.787 612.105 196.964C611.732 196.731 611.344 196.513 610.956 196.311C610.567 196.109 610.179 195.907 609.775 195.721C608.315 195.038 607.322 193.624 607.275 192.009L607.104 186.511L589.181 187.07L589.352 192.553C589.399 194.168 588.529 195.643 587.1 196.42C586.324 196.855 585.563 197.321 584.817 197.833C583.497 198.75 581.789 198.874 580.36 198.113L575.53 195.519L567.05 211.33L571.88 213.923C573.293 214.684 574.132 216.175 574.101 217.791C574.085 218.691 574.101 219.577 574.179 220.477C574.318 222.093 573.573 223.63 572.206 224.484L567.547 227.373L576.99 242.609L581.664 239.705H581.727ZM586.215 211.407C590.051 204.263 598.966 201.576 606.11 205.397C613.254 209.233 615.941 218.132 612.105 225.276C608.269 232.421 599.385 235.108 592.225 231.271C585.081 227.435 582.379 218.536 586.215 211.392V211.407Z" fill="#EBEBEB"/>
<path d="M61.2695 69.1904C61.2695 96.1987 83.1681 118.097 110.176 118.097C137.185 118.097 159.083 96.1987 159.083 69.1904C159.083 42.1821 137.185 20.2834 110.176 20.2834C83.1681 20.2834 61.2695 42.1821 61.2695 69.1904ZM87.3304 69.1904C87.3304 56.5792 97.5653 46.3444 110.176 46.3444C122.788 46.3444 133.022 56.5792 133.022 69.1904C133.022 81.8015 122.788 92.0209 110.176 92.0209C97.5653 92.0209 87.3304 81.8015 87.3304 69.1904Z" fill="#EBEBEB"/>
<path d="M100.78 22.3024H119.588L118.548 8.99243H101.821L100.78 22.3024Z" fill="#EBEBEB"/>
<path d="M136.578 28.6391L149.873 41.9335L158.554 31.7918L146.72 19.9573L136.578 28.6391Z" fill="#EBEBEB"/>
<path d="M157.405 58.4431V77.2511L170.731 76.2105V59.4837L157.405 58.4431Z" fill="#EBEBEB"/>
<path d="M151.07 94.2417L137.775 107.536L147.917 116.218L159.752 104.383L151.07 94.2417Z" fill="#EBEBEB"/>
<path d="M121.281 115.069H102.473L103.498 128.394H120.24L121.281 115.069Z" fill="#EBEBEB"/>
<path d="M85.4675 108.732L72.173 95.4375L63.4912 105.579L75.3258 117.414L85.4675 108.732Z" fill="#EBEBEB"/>
<path d="M64.6401 78.9437V60.1357L51.3301 61.1763V77.9031L64.6401 78.9437Z" fill="#EBEBEB"/>
<path d="M70.9757 43.1451L84.2702 29.8351L74.1285 21.1533L62.2939 32.9879L70.9757 43.1451Z" fill="#EBEBEB"/>
<path d="M573.183 355.689H560.758V650.777H519.058V355.689H506.648L539.916 319.161L573.183 355.689Z" fill="#EBEBEB"/>
<path d="M649.595 296.439H637.17V650.777H595.454V296.439H583.061L616.328 259.91L649.595 296.439Z" fill="#EBEBEB"/>
<path d="M502.719 420.857H490.294V650.777H448.594V420.857H436.185L469.452 384.329L502.719 420.857Z" fill="#EBEBEB"/>
<path d="M1.80176 650.777L82.78 650.389L163.758 650.249L325.699 650.001L487.655 650.249L568.618 650.389L649.596 650.777L568.618 651.15L487.655 651.29L325.699 651.554L163.758 651.29L82.78 651.15L1.80176 650.777Z" fill="#263238"/>
<path d="M456.966 56.1753H194.416C179.755 56.1753 167.858 68.2739 167.858 83.2302V623.722C167.858 638.648 179.755 650.777 194.416 650.777H456.966C471.643 650.777 483.555 638.648 483.555 623.722V83.2302C483.555 68.2739 471.643 56.1753 456.966 56.1753ZM466.953 607.011C466.953 621.237 456.299 632.746 443.159 632.746H208.27C195.1 632.746 184.445 621.237 184.445 607.011V103.715C184.445 74.7348 195.1 73.3214 208.27 73.3214H255.313C258.046 73.3214 260.283 76.4276 260.283 80.2793V81.9411C260.283 90.9646 265.222 90.9957 271.294 90.9957H380.104C386.223 90.9957 391.115 90.9646 391.115 81.9411V80.2793C391.115 76.4276 393.321 73.3214 396.101 73.3214H443.159C456.299 73.3214 466.953 77.1731 466.953 103.715V607.011Z" fill="#263238"/>
<path d="M340.531 79.7202H310.851C309.842 79.7202 309.019 78.8971 309.019 77.8876C309.019 76.8781 309.842 76.0549 310.851 76.0549H340.531C341.54 76.0549 342.363 76.8781 342.363 77.8876C342.363 78.8971 341.54 79.7202 340.531 79.7202Z" fill="white"/>
<path d="M466.953 103.716V607.011C466.953 621.237 456.299 632.746 443.159 632.746H208.27C195.1 632.746 184.445 621.237 184.445 607.011V103.716C184.445 74.7348 195.1 73.3215 208.27 73.3215H255.313C258.046 73.3215 260.283 76.4277 260.283 80.2794V81.9412C260.283 90.9647 265.222 90.9957 271.294 90.9957H380.104C386.223 90.9957 391.115 90.9647 391.115 81.9412V80.2794C391.115 76.4277 393.321 73.3215 396.101 73.3215H443.159C456.299 73.3215 466.953 77.1732 466.953 103.716Z" fill="white"/>
<path d="M247.191 84.6123C247.036 84.7676 246.881 84.9074 246.741 85.0627C246.648 85.1559 246.57 85.2335 246.477 85.3267C245.25 84.1464 243.806 83.5096 242.097 83.5096C240.389 83.5096 238.944 84.1464 237.717 85.3267C237.64 85.2491 237.562 85.1559 237.469 85.0782C237.314 84.9229 237.174 84.7831 237.019 84.6278C237.019 84.6278 237.034 84.5968 237.05 84.5968C237.236 84.4259 237.422 84.2551 237.624 84.0842C238.028 83.7426 238.478 83.463 238.96 83.23C239.519 82.9505 240.109 82.7486 240.715 82.6399C241.01 82.5933 241.305 82.5622 241.6 82.5156C241.693 82.5156 242.346 82.5156 242.377 82.5156C242.579 82.5156 242.781 82.5467 242.982 82.5622C243.542 82.6243 244.07 82.7486 244.598 82.9505C244.97 83.0903 245.343 83.2611 245.685 83.463C246.058 83.6804 246.399 83.9134 246.725 84.193C246.896 84.3327 247.052 84.4881 247.207 84.6278L247.191 84.6123Z" fill="#C7C7C7"/>
<path d="M239.162 86.7556C238.929 86.5226 238.68 86.2897 238.447 86.0412C239.27 85.2336 240.233 84.721 241.367 84.5813C243.06 84.3483 244.52 84.8608 245.762 86.0412C245.514 86.2897 245.281 86.5226 245.048 86.7556C244.24 85.9635 243.262 85.5442 242.113 85.5442C240.963 85.5442 239.985 85.9635 239.177 86.7556H239.162Z" fill="#C7C7C7"/>
<path d="M244.318 87.47C244.085 87.703 243.836 87.9515 243.603 88.1844C243.184 87.7806 242.687 87.5632 242.097 87.5632C241.507 87.5632 241.01 87.7806 240.59 88.1844C240.357 87.9515 240.109 87.703 239.876 87.47C241.01 86.2741 243.06 86.181 244.318 87.47Z" fill="#C7C7C7"/>
<path d="M242.749 88.8366C242.749 89.1938 242.454 89.4889 242.097 89.4889C241.739 89.4889 241.444 89.1938 241.444 88.8366C241.444 88.4794 241.739 88.1843 242.097 88.1843C242.454 88.1843 242.749 88.4794 242.749 88.8366Z" fill="#C7C7C7"/>
<path d="M202.864 85.9945C202.864 84.9539 203.703 84.1152 204.744 84.1152C205.784 84.1152 206.623 84.9539 206.623 85.9945C206.623 87.035 205.784 87.8737 204.744 87.8737C203.703 87.8737 202.864 87.035 202.864 85.9945Z" fill="#C7C7C7"/>
<path d="M208.766 85.9945C208.766 84.9539 209.604 84.1152 210.645 84.1152C211.685 84.1152 212.524 84.9539 212.524 85.9945C212.524 87.035 211.685 87.8737 210.645 87.8737C209.604 87.8737 208.766 87.035 208.766 85.9945Z" fill="#C7C7C7"/>
<path d="M214.652 85.9945C214.652 84.9539 215.491 84.1152 216.532 84.1152C217.572 84.1152 218.411 84.9539 218.411 85.9945C218.411 87.035 217.572 87.8737 216.532 87.8737C215.491 87.8737 214.652 87.035 214.652 85.9945Z" fill="#C7C7C7"/>
<path d="M220.554 85.9945C220.554 84.9539 221.392 84.1152 222.433 84.1152C223.474 84.1152 224.312 84.9539 224.312 85.9945C224.312 87.035 223.474 87.8737 222.433 87.8737C221.392 87.8737 220.554 87.035 220.554 85.9945Z" fill="#C7C7C7"/>
<path d="M226.457 85.9945C226.457 84.9539 227.296 84.1152 228.336 84.1152C229.377 84.1152 230.216 84.9539 230.216 85.9945C230.216 87.035 229.377 87.8737 228.336 87.8737C227.296 87.8737 226.457 87.035 226.457 85.9945Z" fill="#C7C7C7"/>
<path d="M445.769 90.0948H430.502V83.0127H445.769V90.0948ZM431.31 89.3027H444.977V83.8203H431.31V89.3027Z" fill="#C7C7C7"/>
<path d="M441.607 84.2241H431.776V88.8834H441.607V84.2241Z" fill="#C7C7C7"/>
<path d="M447.12 84.6589H445.769V88.433H447.12V84.6589Z" fill="#C7C7C7"/>
<path d="M220.429 605.551H219.047V611.888H216.469V608.657H211.903V611.888H209.325V605.551H207.942L214.186 599.09L220.429 605.551Z" fill="#EBEBEB"/>
<path d="M444.044 599.09H428.994V601.234H444.044V599.09Z" fill="#EBEBEB"/>
<path d="M444.044 604.417H428.994V606.576H444.044V604.417Z" fill="#EBEBEB"/>
<path d="M444.044 609.745H428.994V611.903H444.044V609.745Z" fill="#EBEBEB"/>
<path d="M330.419 605.722L326.132 610.288L321.861 605.722L322.607 605.008L326.132 608.766L329.658 605.008L330.419 605.722Z" fill="#EBEBEB"/>
<path d="M326.133 615.01C321.846 615.01 318.352 611.515 318.352 607.229C318.352 602.942 321.846 599.448 326.133 599.448C330.419 599.448 333.914 602.942 333.914 607.229C333.914 611.515 330.419 615.01 326.133 615.01ZM326.133 600.488C322.405 600.488 319.392 603.517 319.392 607.229C319.392 610.941 322.421 613.969 326.133 613.969C329.844 613.969 332.873 610.941 332.873 607.229C332.873 603.517 329.844 600.488 326.133 600.488Z" fill="#EBEBEB"/>
<path d="M345.127 310.944C355.61 310.882 364.044 302.34 363.997 291.857C363.935 281.358 355.393 272.924 344.91 272.987C334.442 273.049 326.008 281.591 326.071 292.074C326.133 302.542 334.675 311.006 345.143 310.944H345.127ZM328.354 292.074C328.292 282.864 335.715 275.363 344.91 275.316C354.104 275.27 361.605 282.678 361.667 291.888C361.714 301.082 354.306 308.583 345.096 308.646C335.902 308.692 328.4 301.284 328.354 292.09V292.074ZM345.127 310.944C355.61 310.882 364.044 302.34 363.997 291.857C363.935 281.358 355.393 272.924 344.91 272.987C334.442 273.049 326.008 281.591 326.071 292.074C326.133 302.542 334.675 311.006 345.143 310.944H345.127ZM328.354 292.074C328.292 282.864 335.715 275.363 344.91 275.316C354.104 275.27 361.605 282.678 361.667 291.888C361.714 301.082 354.306 308.583 345.096 308.646C335.902 308.692 328.4 301.284 328.354 292.09V292.074ZM345.127 310.944C355.61 310.882 364.044 302.34 363.997 291.857C363.935 281.358 355.393 272.924 344.91 272.987C334.442 273.049 326.008 281.591 326.071 292.074C326.133 302.542 334.675 311.006 345.143 310.944H345.127ZM328.354 292.074C328.292 282.864 335.715 275.363 344.91 275.316C354.104 275.27 361.605 282.678 361.667 291.888C361.714 301.082 354.306 308.583 345.096 308.646C335.902 308.692 328.4 301.284 328.354 292.09V292.074ZM345.236 331.973C367.336 331.833 385.119 313.817 384.995 291.748C384.855 269.663 366.855 251.864 344.77 251.989C322.7 252.128 304.886 270.129 305.026 292.214C305.15 314.283 323.166 332.097 345.236 331.973ZM323.089 292.121C323.011 280.022 332.78 270.129 344.879 270.067C356.962 269.989 366.855 279.774 366.932 291.857C367.01 303.955 357.226 313.833 345.143 313.911C333.06 313.973 323.166 304.204 323.104 292.121H323.089ZM326.04 292.09C326.102 302.557 334.644 311.022 345.112 310.96C355.595 310.898 364.028 302.355 363.982 291.872C363.919 281.373 355.377 272.94 344.894 273.002C334.426 273.064 325.993 281.606 326.055 292.09H326.04ZM328.354 292.09C328.292 282.88 335.715 275.378 344.91 275.332C354.104 275.285 361.605 282.693 361.667 291.903C361.714 301.097 354.306 308.599 345.096 308.661C335.902 308.708 328.4 301.299 328.354 292.105V292.09ZM345.127 310.96C355.61 310.898 364.044 302.355 363.997 291.872C363.935 281.373 355.393 272.94 344.91 273.002C334.442 273.064 326.008 281.606 326.071 292.09C326.133 302.557 334.675 311.022 345.143 310.96H345.127ZM328.354 292.09C328.292 282.88 335.715 275.378 344.91 275.332C354.104 275.285 361.605 282.693 361.667 291.903C361.714 301.097 354.306 308.599 345.096 308.661C335.902 308.708 328.4 301.299 328.354 292.105V292.09ZM345.127 310.96C355.61 310.898 364.044 302.355 363.997 291.872C363.935 281.373 355.393 272.94 344.91 273.002C334.442 273.064 326.008 281.606 326.071 292.09C326.133 302.557 334.675 311.022 345.143 310.96H345.127ZM328.354 292.09C328.292 282.88 335.715 275.378 344.91 275.332C354.104 275.285 361.605 282.693 361.667 291.903C361.714 301.097 354.306 308.599 345.096 308.661C335.902 308.708 328.4 301.299 328.354 292.105V292.09Z" fill="#FFC727"/>
<path d="M337.098 253.682L352.473 253.589L351.557 242.717L337.89 242.795L337.098 253.682Z" fill="#FFC727"/>
<path d="M366.388 258.683L377.321 269.492L384.373 261.152L374.65 251.538L366.388 258.683Z" fill="#FFC727"/>
<path d="M383.565 282.942L383.659 298.318L394.546 297.401L394.453 283.734L383.565 282.942Z" fill="#FFC727"/>
<path d="M378.565 312.233L367.756 323.183L376.096 330.218L385.71 320.496L378.565 312.233Z" fill="#FFC727"/>
<path d="M354.305 329.411L338.93 329.504L339.846 340.391L353.513 340.298L354.305 329.411Z" fill="#FFC727"/>
<path d="M325.014 324.41L314.065 313.6L307.029 321.94L316.752 331.554L325.014 324.41Z" fill="#FFC727"/>
<path d="M307.837 300.151L307.744 284.775L296.856 285.691L296.95 299.374L307.837 300.151Z" fill="#FFC727"/>
<path d="M312.839 270.859L323.648 259.925L315.308 252.874L305.694 262.597L312.839 270.859Z" fill="#FFC727"/>
<g opacity="0.5">
<path d="M296.886 249.52C293.889 236.443 280.858 228.274 267.781 231.287C254.72 234.284 246.551 247.315 249.564 260.392C252.561 273.453 265.592 281.623 278.653 278.625C291.73 275.612 299.884 262.582 296.886 249.52ZM276.199 267.924C269.055 269.571 261.895 265.082 260.249 257.938C258.603 250.778 263.091 243.618 270.235 241.972C277.395 240.341 284.555 244.814 286.186 251.974C287.832 259.134 283.343 266.278 276.199 267.924Z" fill="#FFC727"/>
<path d="M263.463 233.321L272.564 231.225L270.592 224.904L262.5 226.767L263.463 233.321Z" fill="#FFC727"/>
<path d="M281.495 232.405L289.4 237.359L292.475 231.488L285.44 227.078L281.495 232.405Z" fill="#FFC727"/>
<path d="M294.882 244.503L296.979 253.605L303.3 251.632L301.436 243.541L294.882 244.503Z" fill="#FFC727"/>
<path d="M295.799 262.535L290.845 270.44L296.715 273.515L301.126 266.48L295.799 262.535Z" fill="#FFC727"/>
<path d="M283.7 275.923L274.599 278.019L276.571 284.34L284.678 282.477L283.7 275.923Z" fill="#FFC727"/>
<path d="M265.668 276.839L257.763 271.885L254.688 277.755L261.723 282.166L265.668 276.839Z" fill="#FFC727"/>
<path d="M252.281 264.741L250.2 255.639L243.863 257.612L245.727 265.719L252.281 264.741Z" fill="#FFC727"/>
<path d="M251.365 246.709L256.335 238.804L250.449 235.729L246.038 242.764L251.365 246.709Z" fill="#FFC727"/>
</g>
<g opacity="0.5">
<path d="M402.325 226.099C401.315 214.622 391.205 206.142 379.727 207.167C368.265 208.176 359.785 218.287 360.811 229.764C361.82 241.226 371.931 249.706 383.392 248.696C394.87 247.671 403.334 237.561 402.325 226.099ZM382.569 239.316C376.295 239.875 370.735 235.216 370.176 228.941C369.617 222.667 374.276 217.107 380.55 216.547C386.825 216.004 392.385 220.648 392.928 226.938C393.488 233.212 388.828 238.772 382.554 239.331L382.569 239.316Z" fill="#FFC727"/>
<path d="M375.813 208.378L383.796 207.68L382.864 202.057L375.767 202.694L375.813 208.378Z" fill="#FFC727"/>
<path d="M391.251 209.73L397.401 214.871L400.694 210.242L395.227 205.661L391.251 209.73Z" fill="#FFC727"/>
<path d="M401.206 221.595L401.921 229.578L407.527 228.631L406.906 221.533L401.206 221.595Z" fill="#FFC727"/>
<path d="M399.871 237.033L394.715 243.168L399.359 246.476L403.925 241.009L399.871 237.033Z" fill="#FFC727"/>
<path d="M388.005 246.988L380.022 247.687L380.954 253.309L388.052 252.673L388.005 246.988Z" fill="#FFC727"/>
<path d="M372.568 245.637L366.418 240.496L363.125 245.125L368.576 249.706L372.568 245.637Z" fill="#FFC727"/>
<path d="M362.612 233.771L361.898 225.789L356.291 226.736L356.912 233.834L362.612 233.771Z" fill="#FFC727"/>
<path d="M363.948 218.349L369.104 212.199L364.461 208.891L359.895 214.358L363.948 218.349Z" fill="#FFC727"/>
</g>
<path d="M406.489 393.103H244.921V406.91H406.489V393.103Z" stroke="#FFC727" stroke-width="0.776546" stroke-miterlimit="10"/>
<path d="M252.639 395.728H247.529V404.286H252.639V395.728Z" fill="#FFC727"/>
<path d="M259.707 395.728H254.598V404.286H259.707V395.728Z" fill="#FFC727"/>
<path d="M266.774 395.728H261.664V404.286H266.774V395.728Z" fill="#FFC727"/>
<path d="M273.825 395.728H268.715V404.286H273.825V395.728Z" fill="#FFC727"/>
<path d="M280.891 395.728H275.781V404.286H280.891V395.728Z" fill="#FFC727"/>
<path d="M287.957 395.728H282.848V404.286H287.957V395.728Z" fill="#FFC727"/>
<path d="M295.023 395.728H289.913V404.286H295.023V395.728Z" fill="#FFC727"/>
<path d="M302.075 395.728H296.965V404.286H302.075V395.728Z" fill="#FFC727"/>
<path d="M309.141 395.728H304.031V404.286H309.141V395.728Z" fill="#FFC727"/>
<path d="M316.208 395.728H311.099V404.286H316.208V395.728Z" fill="#FFC727"/>
<path d="M323.259 395.728H318.149V404.286H323.259V395.728Z" fill="#FFC727"/>
<path d="M330.326 395.728H325.216V404.286H330.326V395.728Z" fill="#FFC727"/>
<path d="M296.639 378.085C294.138 378.085 292.15 376.066 292.15 373.596V368.067C292.15 367.586 292.523 367.213 293.005 367.213C293.486 367.213 293.874 367.586 293.874 368.067V373.596C293.874 375.118 295.117 376.361 296.639 376.361C298.161 376.361 299.403 375.118 299.403 373.596V368.067C299.403 367.586 299.792 367.213 300.273 367.213C300.755 367.213 301.127 367.586 301.127 368.067V373.596C301.127 376.066 299.124 378.085 296.639 378.085Z" fill="#263238"/>
<path d="M308.411 373.861H306.5V377.231C306.5 377.697 306.112 378.085 305.631 378.085C305.149 378.085 304.776 377.697 304.776 377.231V368.068C304.776 367.586 305.165 367.213 305.631 367.213H308.411C310.259 367.213 311.75 368.704 311.75 370.553C311.75 372.401 310.259 373.861 308.411 373.861ZM306.5 372.137H308.411C309.311 372.137 310.01 371.422 310.026 370.553C310.026 369.652 309.311 368.937 308.411 368.937H306.5V372.137Z" fill="#263238"/>
<path d="M313.832 377.231V368.067C313.832 367.586 314.205 367.213 314.686 367.213H316.519C319.516 367.213 321.939 369.651 321.939 372.633C321.939 375.615 319.516 378.085 316.519 378.085H314.686C314.205 378.085 313.832 377.697 313.832 377.231ZM315.556 376.361H316.519C318.569 376.361 320.215 374.699 320.215 372.633C320.215 370.568 318.569 368.937 316.519 368.937H315.556V376.361Z" fill="#263238"/>
<path d="M329.533 375.522H325.759L324.998 377.541C324.858 377.883 324.532 378.085 324.191 378.085C324.082 378.085 323.989 378.085 323.895 378.038C323.445 377.867 323.228 377.37 323.383 376.92L326.815 367.772C326.955 367.43 327.297 367.213 327.638 367.229C327.996 367.229 328.322 367.43 328.462 367.772L331.894 376.92C332.049 377.37 331.832 377.867 331.381 378.038C331.304 378.069 331.195 378.085 331.086 378.085C330.745 378.085 330.418 377.883 330.294 377.541L329.533 375.522ZM328.896 373.814L327.638 370.475L326.38 373.814H328.896Z" fill="#263238"/>
<path d="M339.116 368.953H336.646V377.246C336.646 377.728 336.274 378.1 335.792 378.1C335.311 378.1 334.938 377.728 334.938 377.246V368.953H332.484C332.003 368.953 331.63 368.549 331.63 368.083C331.63 367.617 332.003 367.229 332.484 367.229H339.116C339.582 367.229 339.97 367.602 339.97 368.083C339.97 368.564 339.582 368.953 339.116 368.953Z" fill="#263238"/>
<path d="M342.533 377.231V368.068C342.533 367.586 342.906 367.213 343.387 367.213H348.466C348.916 367.213 349.32 367.586 349.32 368.068C349.32 368.549 348.916 368.937 348.466 368.937H344.257V371.779H347.876C348.342 371.779 348.73 372.183 348.73 372.634C348.73 373.115 348.342 373.503 347.876 373.503H344.257V376.361H348.466C348.916 376.361 349.32 376.749 349.32 377.231C349.32 377.712 348.916 378.085 348.466 378.085H343.434H343.403C342.921 378.085 342.549 377.712 342.549 377.246L342.533 377.231Z" fill="#263238"/>
<path d="M352.551 375.88C353.187 375.88 353.715 376.408 353.715 377.044C353.715 377.681 353.187 378.194 352.551 378.194C351.914 378.194 351.401 377.681 351.401 377.044C351.401 376.408 351.914 375.88 352.551 375.88Z" fill="#263238"/>
<path d="M356.122 375.879C356.759 375.879 357.287 376.407 357.287 377.044C357.287 377.681 356.759 378.193 356.122 378.193C355.485 378.193 354.973 377.681 354.973 377.044C354.973 376.407 355.485 375.879 356.122 375.879Z" fill="#263238"/>
<path d="M359.694 375.879C360.331 375.879 360.859 376.407 360.859 377.044C360.859 377.681 360.331 378.193 359.694 378.193C359.057 378.193 358.545 377.681 358.545 377.044C358.545 376.407 359.057 375.879 359.694 375.879Z" fill="#263238"/>
<path d="M549.499 440.535C525.55 481.366 487.95 517.848 477.979 521.56C467.123 525.598 426.665 513.204 406.537 505.951C399.952 503.575 413.417 457.184 420.515 454.793C427.612 452.401 458.985 471.442 466.533 469.594C468.909 469.019 510.687 444.651 533.611 429.306C554.982 415.002 556.768 428.141 549.499 440.535Z" fill="#AD6359"/>
<path d="M409.472 514.509L427.627 453.379C427.627 453.379 459.202 468.32 464.436 467.124C469.67 465.928 518.11 436.155 535.754 426.34C553.381 416.524 566.738 422.768 544.342 453.503C520.161 486.678 492.127 518.361 481.162 522.834C466.734 528.72 409.472 514.509 409.472 514.509Z" fill="#FFC727"/>
<path d="M477.979 493.076C477.233 495.08 476.612 497.145 476.457 499.366C477.839 497.596 478.74 495.67 479.532 493.682C480.262 491.678 480.898 489.644 481.038 487.407C479.687 489.178 478.771 491.104 477.979 493.076ZM476.161 461.16C475.587 461.486 475.012 461.797 474.469 462.108C476.022 462.605 477.606 462.977 479.283 463.102C478.289 462.325 477.233 461.704 476.161 461.16ZM449.852 511.822C447.864 511.061 445.814 510.455 443.578 510.285C445.348 511.667 447.274 512.583 449.262 513.375C451.265 514.105 453.3 514.726 455.536 514.882C453.766 513.515 451.84 512.614 449.852 511.822ZM442.211 476.101C441.295 474.175 440.301 472.28 438.841 470.603C439.12 472.808 439.819 474.812 440.673 476.784C441.574 478.726 442.584 480.62 444.044 482.282C443.78 480.077 443.034 478.058 442.211 476.101ZM507.254 462.496C505.329 463.381 503.434 464.391 501.741 465.851C503.962 465.571 505.981 464.841 507.938 464.002C509.864 463.117 511.758 462.123 513.451 460.648C511.23 460.927 509.227 461.657 507.254 462.496ZM415.529 494.117L414.954 496.058C416.616 495.266 418.231 494.35 419.691 493.076C418.231 493.263 416.864 493.635 415.529 494.117Z" fill="white"/>
<path d="M424.289 513.266C425.236 511.232 425.733 508.918 426.432 506.774C427.053 504.833 427.721 502.907 428.311 500.966C429.631 496.726 430.967 492.486 432.256 488.23C433.545 483.99 434.85 479.766 436.108 475.511C437.35 471.286 438.733 467.077 439.742 462.791C439.789 462.62 439.525 462.558 439.462 462.698C437.63 466.72 436.216 470.929 434.757 475.091C433.312 479.191 431.992 483.338 430.703 487.501C429.398 491.74 428.218 496.011 427.069 500.282C426.525 502.348 426.044 504.429 425.547 506.51C425.034 508.7 424.273 510.968 424.071 513.204C424.071 513.328 424.227 513.391 424.289 513.266Z" fill="#263238"/>
<path opacity="0.1" d="M437.909 520.535C454.512 523.517 473.646 525.909 481.163 522.834C492.127 518.361 520.161 486.709 544.342 453.504C558.569 433.966 558.367 424.336 551.797 422.411L437.894 520.52L437.909 520.535Z" fill="black"/>
<path d="M448.517 355.922C445.038 341.246 433.561 330.56 419.832 327.361L427.1 357.988L411.833 367.866L393.771 365.909L386.502 335.266C375.646 344.321 370.226 359.029 373.705 373.69C378.597 394.346 399.331 407.128 419.987 402.22C440.643 397.328 453.425 376.579 448.517 355.938V355.922Z" fill="#DBDBDB"/>
<path d="M424.693 588.716C428.172 603.392 439.649 614.078 453.378 617.277L446.11 586.65L461.377 576.772L479.439 578.729L486.708 609.372C497.564 600.317 502.984 585.609 499.505 570.948C494.613 550.292 473.879 537.51 453.223 542.418C432.567 547.31 419.785 568.059 424.693 588.7V588.716Z" fill="#DBDBDB"/>
<path d="M430.695 373.063L397.359 380.974L440.543 562.944L473.878 555.033L430.695 373.063Z" fill="#DBDBDB"/>
<path d="M433.588 428.915L419.867 432.171L437.651 507.108L451.372 503.851L433.588 428.915Z" fill="#C7C7C7"/>
<path d="M439.617 503.544C442.801 497.627 433.995 497.254 433.995 497.254C433.995 497.254 446.793 494.722 447.709 487.345C448.579 480.232 437.924 480.17 437.163 480.154C437.831 480.015 449.542 477.39 449.697 469.873C449.868 462.076 439.167 463.847 438.468 463.956C439.058 463.63 446.87 459.095 445.705 453.364C443.686 443.517 420.281 454.575 412.578 451.935L407.748 437.569C407.096 440.426 406.769 443.315 402.933 447.959C399.346 452.292 396.923 455.165 396.162 458.613C394.919 464.266 399.485 466.751 399.485 466.751C399.485 466.751 392.823 469.314 392.512 475.216C392.357 478.244 397.078 481.195 397.078 481.195C397.078 481.195 391.829 483.463 391.875 488.743C391.906 492.952 396.628 495.251 396.628 495.251C396.628 495.251 392.605 499.77 394.019 504.057C396.861 512.707 432.753 516.202 439.586 503.528L439.617 503.544Z" fill="#AD6359"/>
<path d="M410.978 448.829L407.826 437.895C407.624 437.522 407.406 437.134 407.189 436.777C399.563 424.383 381.066 422.022 383.737 432.117C385.756 439.805 398.6 443.952 399.532 452.121H399.548L410.978 448.829Z" fill="#AD6359"/>
<path d="M397.342 495.732C397.218 495.717 397.172 495.872 397.296 495.918C408.82 499.941 422.72 500.842 434.477 497.332C434.865 497.223 434.85 496.54 434.399 496.586C421.571 497.891 410.093 498.031 397.342 495.748V495.732Z" fill="#263238"/>
<path d="M396.907 481.273C396.768 481.242 396.721 481.475 396.861 481.521C408.757 485.606 424.444 486.181 437.521 480.543C437.971 480.357 438.173 479.72 437.645 479.906C428.653 483.012 408.369 483.385 396.892 481.273H396.907Z" fill="#263238"/>
<path d="M439.26 463.257C426.51 468.196 413.448 468.537 399.983 466.969C399.812 466.953 399.796 467.202 399.936 467.248C406.304 469.811 415.001 469.92 421.757 469.423C428.233 468.957 433.98 467.233 439.416 463.692C439.633 463.552 439.509 463.148 439.245 463.241L439.26 463.257Z" fill="#263238"/>
<path d="M124.247 646.646C128.751 648.37 259.459 650.746 264.568 647.826C265.128 647.5 264.972 641.722 266.898 626.813C266.991 626.098 269.973 623.334 274.632 619.435C292.12 604.774 333.184 573.899 333.184 573.899L267.954 517.226L204.743 579.366L188.296 595.518C188.296 595.518 134.885 624.359 129.605 628.164C124.355 631.984 119.743 644.937 124.247 646.661V646.646Z" fill="#AD6359"/>
<path d="M124.246 646.63C128.75 648.369 259.459 650.746 264.568 647.826C265.127 647.5 264.972 641.738 266.898 626.797C266.991 626.083 269.973 623.334 274.632 619.404C280.705 614.31 283.594 611.981 292.648 604.945L209.713 574.458L204.743 579.35L188.312 595.502C188.312 595.502 134.901 624.328 129.62 628.148C124.371 631.969 119.743 644.906 124.246 646.63Z" fill="#EBEBEB"/>
<path d="M115.24 648.447C119.775 650.031 259.041 651.553 264.057 648.463C265.238 647.733 266.309 639.657 267.179 628.568C267.288 627.185 281.39 615.894 283.331 613.813L197.989 585.065L187.21 595.207C187.21 595.207 124.403 624.436 119.278 628.412C114.168 632.388 110.705 646.863 115.24 648.447Z" fill="#FFC727"/>
<path d="M117.165 643.245C139.048 642.965 236.101 643.897 257.751 645.279C257.922 645.279 257.922 645.403 257.751 645.419C236.07 646.164 139.032 644.534 117.165 643.602C116.699 643.586 116.715 643.245 117.165 643.245Z" fill="#263238"/>
<path d="M180.251 596.139C188.871 594.633 199.385 596.077 205.893 602.289C206.141 602.538 205.8 602.879 205.52 602.786C197.056 600.006 189.15 598.205 180.267 597.226C179.645 597.164 179.63 596.248 180.251 596.139Z" fill="#263238"/>
<path d="M173.991 599.805C182.611 598.298 193.126 599.742 199.633 605.955C199.881 606.203 199.54 606.545 199.26 606.452C190.796 603.672 182.891 601.87 174.007 600.892C173.386 600.83 173.37 599.913 173.991 599.805Z" fill="#263238"/>
<path d="M167.734 603.47C176.353 601.963 186.868 603.407 193.375 609.62C193.624 609.868 193.282 610.21 193.002 610.117C184.538 607.337 176.633 605.535 167.749 604.557C167.128 604.495 167.112 603.578 167.734 603.47Z" fill="#263238"/>
<path d="M161.475 607.151C170.094 605.644 180.609 607.089 187.116 613.301C187.365 613.55 187.023 613.891 186.744 613.798C178.279 611.018 170.374 609.216 161.49 608.238C160.869 608.176 160.854 607.259 161.475 607.151Z" fill="#263238"/>
<path d="M168.294 588.343C174.32 593.142 182.225 595.177 189.307 597.894C190.037 598.174 190.643 597.491 190.674 596.838C190.813 596.807 190.938 596.714 190.876 596.528C188.608 589.306 183.607 581.618 177.845 576.648C174.289 573.589 168.014 571.414 164.582 576.042C161.336 580.407 164.768 585.547 168.294 588.343ZM166.181 581.385C164.768 571.927 174.863 577.005 177.395 579.366C179.026 580.888 180.501 582.628 181.899 584.351C184.834 587.955 187.21 591.915 189.757 595.798C186.356 594.245 182.862 593.002 179.414 591.589C175.298 589.896 166.958 586.619 166.181 581.401V581.385Z" fill="#263238"/>
<path d="M219.763 583.746C217.744 578.356 211.112 578.698 206.841 580.655C199.93 583.823 192.988 589.818 188.81 596.124C188.701 596.279 188.794 596.419 188.918 596.481C188.763 597.118 189.151 597.941 189.928 597.879C197.476 597.242 205.63 597.491 212.758 594.54C216.921 592.816 221.658 588.855 219.747 583.746H219.763ZM201.188 594.555C197.476 594.959 193.78 595.176 190.083 595.72C193.609 592.707 196.995 589.57 200.815 586.914C202.648 585.656 204.543 584.382 206.53 583.373C209.621 581.804 220.71 579.723 216.734 588.436C214.544 593.235 205.614 594.058 201.188 594.54V594.555Z" fill="#263238"/>
<path d="M203.843 575.872L284.479 617.65C284.479 617.65 368.471 541.61 376.174 541.051C383.644 540.508 496.88 617.168 553.77 617.401C612.694 617.65 615.676 555.914 615.676 555.914L529.713 536.174C467.744 505.641 403.213 450.785 361 455.911C315.153 461.471 203.843 575.872 203.843 575.872Z" fill="#37474F"/>
<path d="M203.843 575.872L284.479 617.65C284.479 617.65 368.471 541.61 376.174 541.051C383.644 540.508 496.88 617.168 553.77 617.401C612.694 617.65 615.676 555.914 615.676 555.914L529.713 536.174C467.744 505.641 403.213 450.785 361 455.911C315.153 461.471 203.843 575.872 203.843 575.872Z" fill="#37474F"/>
<path d="M223.536 565.232C237.141 571.957 233.336 569.845 246.864 576.725C253.495 580.096 286.825 596.916 292.493 601.078C292.618 601.171 292.493 601.388 292.354 601.342C285.691 599.105 252.719 581.571 246.165 578.092C232.746 570.979 236.675 572.874 223.35 565.621C223.101 565.481 223.288 565.124 223.536 565.248V565.232Z" fill="#263238"/>
<path d="M298.752 598.391C314.516 584.491 366.171 539.249 368.253 537.556C369.945 536.205 371.638 534.435 373.626 533.518C375.319 532.742 376.981 533.161 378.596 533.922C380.988 535.04 383.318 536.252 385.694 537.417C390.353 539.684 395.012 541.967 399.672 544.235C417.734 553.056 435.703 562.095 453.906 570.622C471.409 578.822 483.911 586.541 502.191 592.847C520.378 599.121 539.17 603.889 558.273 606.219C560.634 606.498 562.995 606.747 565.355 606.98C565.526 606.995 565.526 607.259 565.355 607.244C546.579 606.327 528.097 602.491 510.159 596.978C492.05 591.402 479.749 584.18 462.556 576.26C444.727 568.059 427.161 559.284 409.58 550.54C400.308 545.928 391.052 541.268 381.733 536.718C379.621 535.677 376.624 533.441 374.216 534.559C373.176 535.04 372.306 535.879 371.436 536.609C370.411 537.463 369.371 538.317 368.346 539.187C364.354 542.511 301.05 597.04 298.969 598.609C298.814 598.733 298.596 598.515 298.752 598.391Z" fill="#263238"/>
<path d="M248.34 598.95L355.084 556.131C327.812 578.434 284.465 617.665 284.465 617.665L248.34 598.95Z" fill="#263238"/>
<path d="M615.661 555.93C615.661 555.93 612.679 617.665 553.755 617.417C504.304 617.215 412.253 559.253 384.142 544.468L477.886 506.852C495.001 517.304 512.458 527.679 529.713 536.19L615.661 555.93Z" fill="#263238"/>
<path d="M615.663 555.93C615.663 555.93 624.251 618.768 595.442 639.408C566.632 660.065 362.726 648.416 332.224 637.032C301.705 625.663 302.948 575.669 337.302 565.59C369.979 556.007 507.148 556.706 510.581 555.495C511.435 555.2 498.793 546.828 498.87 546.363L526.453 530.676L615.678 555.914L615.663 555.93Z" fill="#37474F"/>
<path d="M574.881 559.377C574.927 559.144 575.3 559.237 575.285 559.455C574.974 565.745 577.024 572.47 580.938 577.424C585.442 583.108 592.291 586.479 598.488 589.958C599.078 590.299 598.581 591.231 597.96 591.014C594.155 589.678 590.427 587.83 586.995 585.702C583.873 583.761 581.015 581.369 578.888 578.34C574.989 572.749 573.467 566.071 574.881 559.377Z" fill="#263238"/>
<path d="M513.082 549.733C514.573 547.993 516.188 546.347 517.741 544.654C521.407 540.663 525.103 536.64 528.924 532.804C529.281 532.447 529.933 533.006 529.607 533.41C526.998 536.516 524.264 539.513 521.562 542.542C520.18 544.095 518.782 545.632 517.384 547.17C516.079 548.599 514.48 550.012 513.486 551.689C512.445 553.429 513.641 555.013 515.474 555.293C517.12 555.541 518.689 554.765 519.993 553.848C522.975 551.767 525.382 548.708 527.898 546.114C529.436 544.53 530.974 542.946 532.542 541.377C534.204 539.715 535.975 538.146 537.621 536.485C537.73 536.376 537.916 536.547 537.823 536.656C536.363 538.488 534.996 540.414 533.521 542.247C532.061 544.079 530.57 545.896 529.063 547.698C527.634 549.406 526.159 551.068 524.637 552.699C523.348 554.081 521.904 555.417 520.211 556.318C517.493 557.762 512.88 557.886 511.622 554.407C511.001 552.683 511.948 551.006 513.051 549.733H513.082Z" fill="#263238"/>
<path d="M336.449 637.405C347.103 638.073 357.726 639.16 368.365 639.859C378.926 640.558 389.502 641.086 400.079 641.443C421.325 642.173 442.587 642.313 463.849 641.785C485.328 641.256 508.516 640.138 529.918 638.135C540.152 637.172 550.527 636.457 560.684 634.733C569.847 633.18 578.234 629.779 585.332 623.489C599.698 610.738 605.926 591.324 608.954 572.656C609.358 570.156 609.715 567.64 610.026 565.124C610.042 564.953 610.306 564.969 610.29 565.139C608.193 584.336 604.326 604.262 591.529 619.187C586 625.648 579.088 630.835 571.137 633.631C561.445 637.032 550.838 637.451 540.711 638.368C519.232 640.325 495.951 641.536 474.394 642.25C452.713 642.965 431.001 643.058 409.304 642.421C387.623 641.785 365.942 640.526 344.339 638.507C341.698 638.259 339.074 637.995 336.449 637.638C336.294 637.622 336.309 637.389 336.464 637.389L336.449 637.405Z" fill="#263238"/>
<path d="M407.27 558.508C414.026 557.824 420.766 557.156 427.538 556.753C434.387 556.349 441.236 556.038 448.085 555.759C461.628 555.215 475.202 554.78 488.776 554.749C496.479 554.734 504.167 555.029 511.855 555.464C512.103 555.464 512.072 555.836 511.824 555.836C498.234 556.458 484.66 556.722 471.071 557.017C457.512 557.312 443.954 557.902 430.395 558.601C422.707 558.989 415.02 559.222 407.332 559.502C406.773 559.517 406.695 558.554 407.27 558.508Z" fill="#263238"/>
<path d="M497.303 545.617C502.645 548.102 507.615 551.27 512.461 554.625C517.244 557.933 522.121 561.365 526.392 565.31C526.516 565.419 526.33 565.574 526.221 565.512C521.065 562.841 516.126 559.564 511.234 556.426C506.326 553.274 501.449 550.059 496.945 546.331C496.635 546.067 496.852 545.415 497.303 545.633V545.617Z" fill="#263238"/>
<path d="M499.754 550.137L619.668 563.99C619.668 561.521 595.828 440.861 564.844 422.115C558.895 418.512 548.225 418.729 538.705 427.427C521.435 443.222 498.185 548.521 499.738 550.137H499.754Z" fill="#FFC727"/>
<path d="M575.886 433.22C574.022 434.09 572.19 435.084 570.574 436.481C572.78 436.202 574.799 435.487 576.756 434.649L576.849 434.602C576.523 434.121 576.212 433.67 575.886 433.22ZM554.547 516.093C552.605 516.994 550.726 518.003 549.049 519.463C551.254 519.199 553.273 518.469 555.23 517.63C557.156 516.73 559.05 515.72 560.743 514.26C558.522 514.524 556.519 515.254 554.547 516.093ZM607.709 512.583C607.274 512.894 606.824 513.235 606.404 513.608C606.917 513.546 607.414 513.453 607.911 513.344C607.849 513.095 607.787 512.831 607.709 512.583ZM505.298 521.249C505.298 521.249 505.282 521.249 505.282 521.218C505.081 522.103 504.879 522.958 504.677 523.812C505.36 525.085 506.152 526.312 507.131 527.431C506.867 525.225 506.137 523.206 505.298 521.249ZM577.889 484.053C576.989 482.111 575.979 480.232 574.535 478.539C574.799 480.76 575.529 482.763 576.367 484.736C577.268 486.662 578.262 488.557 579.722 490.234C579.458 488.028 578.728 486.01 577.889 484.053ZM548.8 421.261C548.691 421.292 548.598 421.323 548.505 421.37C548.629 421.525 548.754 421.68 548.893 421.836C548.893 421.649 548.847 421.447 548.8 421.261ZM529.992 492.626C528.004 491.865 525.954 491.259 523.718 491.088C525.488 492.47 527.414 493.387 529.402 494.179C531.405 494.909 533.44 495.53 535.676 495.685C533.906 494.319 531.98 493.418 529.992 492.626ZM617.323 551.892C616.857 551.69 616.391 551.488 615.925 551.302C613.921 550.572 611.887 549.935 609.666 549.779C611.405 551.162 613.347 552.063 615.335 552.855C616.111 553.15 616.903 553.414 617.695 553.647C617.587 553.088 617.462 552.497 617.323 551.892ZM581.399 535.553C580.654 537.557 580.033 539.607 579.877 541.828C581.244 540.073 582.16 538.131 582.953 536.159C583.698 534.155 584.304 532.121 584.475 529.884C583.092 531.655 582.192 533.581 581.399 535.553ZM532.493 544.483C531.747 546.487 531.126 548.521 530.971 550.758C532.353 548.987 533.254 547.062 534.046 545.074C534.776 543.07 535.412 541.02 535.552 538.799C534.201 540.554 533.285 542.48 532.493 544.483ZM545.523 458.209C544.778 460.213 544.156 462.263 544.017 464.499C545.368 462.729 546.284 460.787 547.092 458.815C547.822 456.811 548.443 454.761 548.598 452.54C547.216 454.311 546.331 456.237 545.523 458.209Z" fill="white"/>
<path d="M577.984 430.782C600.271 447.928 658.994 517.211 646.709 533.658C634.346 550.214 550.293 544.623 525.754 537.557C518.454 535.46 537.185 488.992 544.981 486.693C551.473 484.783 587.893 494.66 588.546 492.548C589.291 490.156 581.215 474.796 568.2 446.732C553.197 414.365 568.122 423.218 577.969 430.782H577.984Z" fill="#AD6359"/>
<path d="M509.104 478.633C492.268 479.068 488.013 481.754 473.616 474.579C464.173 469.873 457.107 473.88 463.521 482.78C474.02 497.348 495.856 501.354 503.823 500.562L509.104 478.633Z" fill="#AD6359"/>
<path d="M555.417 487.237C555.417 487.237 535.227 480.031 517.258 478.71C504.817 477.794 477.545 478.835 456.345 509.431C451.313 516.684 449.294 530.584 461.812 521.716C470.696 515.41 474.439 508.732 480.278 506.014C480.278 506.014 479.813 523.999 487.267 528.751C490.607 530.879 499.847 536.454 507.66 539.778C507.66 539.778 508.84 538.272 510.067 536.144C510.067 536.144 517.46 539.918 529.667 536.687L555.417 487.206V487.237Z" fill="#AD6359"/>
<path d="M505.252 479.751C500.034 483.681 489.1 492.192 482.577 502.256C475.34 513.438 464.391 536.936 472.715 542.201C478.803 546.053 483.773 537.449 483.773 537.449C483.773 537.449 481.304 548.118 487.563 550.401C493.278 552.483 496.71 545.587 496.71 545.587C496.71 545.587 496.322 552.312 502.208 553.259C509.29 554.393 508.949 540.104 517.103 535.057C518.935 533.923 505.237 479.751 505.237 479.751H505.252Z" fill="#AD6359"/>
<path d="M495.669 507.94C491.367 512.444 484.207 525.164 483.633 537.216C483.633 537.495 483.819 537.651 483.881 537.402C487.329 524.263 493.045 512.754 495.778 508.018C495.809 507.955 495.716 507.893 495.669 507.955V507.94Z" fill="#263238"/>
<path d="M506.742 515.581C503.419 519.852 496.632 533.287 496.477 545.525C496.477 545.804 496.678 545.944 496.741 545.696C499.769 531.827 504.428 520.551 506.851 515.659C506.882 515.597 506.789 515.535 506.742 515.597V515.581Z" fill="#263238"/>
<path d="M480.264 505.921C475.169 508.39 472.11 511.589 468.103 515.488C466.115 517.414 464.111 519.308 461.922 521.001C459.934 522.539 457.014 524.868 454.373 523.393C452.914 522.585 452.618 520.706 452.665 519.184C452.712 517.476 453.845 514.137 454.606 512.599C454.638 512.521 454.513 512.444 454.467 512.537C453.768 513.919 452.432 516.979 452.137 518.501C451.873 519.883 451.749 521.452 452.339 522.772C453.612 525.598 457.169 525.412 459.499 524.185C460.896 523.455 462.17 522.446 463.381 521.452C464.562 520.489 465.68 519.479 466.783 518.423C469.05 516.28 471.178 514.012 473.43 511.838C475.884 509.462 477.654 508.188 480.357 506.107C480.45 506.029 480.357 505.89 480.248 505.936L480.264 505.921Z" fill="#263238"/>
<path d="M472.156 526.639C473.041 523.346 478.446 509.384 480.387 506.029C480.434 505.936 480.325 505.858 480.263 505.936C476.738 510.595 471.768 522.228 470.758 525.847C469.764 529.434 468.693 533.985 469.298 537.697C470.23 543.303 474.113 543.738 475.542 543.785C477.235 543.847 478.834 543.226 480.185 542.216C481.676 541.098 482.981 539.079 483.835 537.433C483.882 537.34 483.758 537.262 483.711 537.34C482.142 539.871 479.269 542.574 476.163 542.682C474.812 542.729 473.383 542.341 472.389 541.393C471.224 540.259 470.867 538.582 470.743 537.029C470.463 533.503 471.255 529.994 472.171 526.608L472.156 526.639Z" fill="#263238"/>
<path d="M555.417 487.236L538.52 546.068C538.52 546.068 643.71 552.063 649.55 532.96C655.374 513.856 604.557 451.282 583.482 434.09C559.051 414.179 557.731 422.535 565.699 442.461C574.023 463.319 588.358 493.092 588.358 493.092L555.433 487.221L555.417 487.236Z" fill="#FFC727"/>
<path d="M581.401 535.553C580.655 537.557 580.034 539.607 579.879 541.828C581.245 540.073 582.162 538.131 582.954 536.159C583.699 534.155 584.305 532.121 584.476 529.884C583.094 531.655 582.193 533.581 581.401 535.553ZM606.607 470.494C604.604 469.764 602.538 469.143 600.333 468.988C602.088 470.37 604.014 471.271 606.002 472.063C608.005 472.793 610.04 473.429 612.276 473.585C610.521 472.203 608.58 471.302 606.607 470.494ZM646.32 529.03C645.435 527.089 644.425 525.194 642.95 523.532C643.229 525.722 643.959 527.741 644.782 529.698C645.683 531.639 646.693 533.534 648.153 535.212C647.889 532.991 647.159 531.003 646.32 529.03ZM611.903 510.253C610.459 510.921 609.046 511.651 607.71 512.583C607.275 512.894 606.825 513.235 606.406 513.608C606.918 513.546 607.415 513.453 607.912 513.344C609.543 513.002 611.08 512.412 612.587 511.775C614.528 510.875 616.407 509.881 618.1 508.421C615.879 508.669 613.876 509.415 611.903 510.253ZM554.548 516.093C552.606 516.994 550.727 518.003 549.05 519.463C551.255 519.199 553.274 518.469 555.231 517.631C557.157 516.73 559.052 515.72 560.745 514.26C558.524 514.524 556.52 515.254 554.548 516.093ZM580.376 431.636C578.885 431.993 577.471 432.537 576.074 433.127L575.887 433.22C574.024 434.09 572.191 435.084 570.576 436.481C572.781 436.202 574.8 435.487 576.757 434.649L576.85 434.602C578.326 433.919 579.754 433.173 581.106 432.21C580.857 432.008 580.609 431.822 580.376 431.636Z" fill="white"/>
<path d="M621.579 502.534C616.36 500.018 610.878 498.015 605.349 496.291C599.866 494.582 594.229 493.464 588.575 492.579C585.345 492.066 582.099 491.725 578.838 491.352C578.744 491.352 578.729 491.492 578.838 491.507C584.537 492.315 590.191 493.604 595.751 495.064C601.295 496.508 606.793 498.046 612.276 499.692C615.382 500.624 618.441 501.711 621.501 502.736C621.641 502.783 621.718 502.581 621.579 502.519V502.534Z" fill="#263238"/>
<path d="M555.666 487.034C556.194 487.081 585.454 491.647 586.433 491.927C586.246 491.523 578.838 477.607 577.735 475.573C577.627 475.371 577.533 475.169 577.425 474.967C576.757 474.082 576.089 473.212 575.452 472.311C574.645 471.146 573.853 469.981 573.045 468.817C573.014 468.786 573.076 468.739 573.092 468.77C573.946 469.888 574.8 471.022 575.639 472.156C576.027 472.684 576.4 473.212 576.772 473.755C576.027 472.311 575.312 470.851 574.582 469.407C573.433 467.077 572.362 464.732 571.29 462.356C571.259 462.278 571.368 462.232 571.414 462.309C573.604 466.363 575.903 470.354 578.108 474.408C580.298 478.446 588.622 493.34 588.576 493.34C588.529 493.387 556.24 487.609 555.619 487.469C555.371 487.407 555.402 487.05 555.666 487.065V487.034Z" fill="#263238"/>
<path d="M559.688 522.927C561.536 516.373 563.338 509.787 565.419 503.295C566.6 499.615 567.78 495.903 568.991 492.237C569.038 492.098 569.286 492.16 569.24 492.3C567.64 498.962 566.04 505.625 564.13 512.21C562.235 518.764 560.403 525.334 558.43 531.857C557.312 535.569 556.085 539.234 554.734 542.868C554.703 542.946 554.579 542.915 554.594 542.837C555.961 536.128 557.793 529.527 559.657 522.927H559.688Z" fill="#263238"/>
<path d="M537.355 547.155C538.1 545.307 538.97 542.682 539.793 540.865C540.011 540.384 540.352 540.415 540.197 540.912C539.685 542.558 539.327 544.391 538.815 546.068C540.29 546.115 541.75 546.13 543.226 546.192C544.934 546.27 546.627 546.348 548.335 546.41C551.674 546.534 554.998 546.643 558.337 546.705C565.093 546.829 571.849 546.813 578.59 546.658C592.117 546.332 605.675 545.524 619.11 543.8C622.868 543.319 626.611 542.76 630.339 542.092C634.128 541.409 638.213 540.648 641.288 539.731C641.381 539.7 641.428 539.871 641.334 539.902C638.197 541.114 635.231 542.03 631.938 542.729C628.584 543.459 625.213 544.096 621.812 544.608C615.056 545.649 608.254 546.332 601.435 546.813C587.924 547.792 574.365 548.18 560.807 548.04C557.017 547.994 553.212 547.916 549.422 547.776C547.512 547.714 545.586 547.652 543.676 547.543C541.766 547.435 537.215 547.435 537.339 547.124L537.355 547.155Z" fill="#263238"/>
<path d="M544.279 446.064C551.144 447.663 562.885 437.134 567.514 428.623C567.824 428.032 566.908 421.898 566.147 414.381C565.712 409.815 565.324 404.736 565.308 400.061C565.308 399.098 536.048 407.283 536.048 407.283C536.048 407.283 538.968 417.068 538.937 425.206C538.937 425.889 538.859 426.526 538.735 427.116C538.735 427.209 538.704 427.318 538.688 427.427C538.113 431.061 537.616 444.511 544.264 446.064H544.279Z" fill="#AD6359"/>
<path d="M563.522 400.186C562.186 408.091 557.341 427.178 541.717 427.582C540.629 427.613 539.635 427.567 538.719 427.427C538.719 427.303 538.75 427.194 538.75 427.101C538.859 426.495 538.937 425.874 538.952 425.19C538.968 417.037 536.048 407.268 536.048 407.268C536.048 407.268 557.154 401.366 563.507 400.186H563.522Z" fill="#263238"/>
<path d="M574.488 369.558C575.932 380.259 565.713 408.805 557.388 414.179C545.305 421.96 527.926 420.05 521.915 406.087C516.076 392.56 530.054 355.581 539.124 350.952C552.496 344.134 572.36 353.748 574.488 369.558Z" fill="#AD6359"/>
<path d="M542.852 382.076C542.852 382.076 542.961 382.232 542.93 382.309C542.138 384.189 541.547 386.487 543.023 387.776C543.07 387.823 543.023 387.916 542.961 387.869C540.973 386.767 541.78 383.723 542.837 382.076H542.852Z" fill="#263238"/>
<path d="M545.321 380.741C548.474 381.688 546.346 387.931 543.426 387.062C540.553 386.192 542.681 379.949 545.321 380.741Z" fill="#263238"/>
<path d="M531.545 378.582C531.545 378.505 531.358 378.629 531.343 378.706C530.753 380.663 529.727 382.807 527.771 382.853C527.708 382.853 527.677 382.946 527.755 382.962C529.991 383.397 531.312 380.539 531.56 378.582H531.545Z" fill="#263238"/>
<path d="M530.504 375.973C527.475 374.684 525.099 380.834 527.91 382.03C530.675 383.21 533.051 377.06 530.504 375.973Z" fill="#263238"/>
<path d="M548.567 378.613C547.744 378.194 547.045 377.681 546.268 377.184C545.399 376.625 544.638 376.268 544.203 375.274C543.97 374.746 544.296 373.954 544.793 373.674C545.942 373.038 547.185 373.457 548.272 374.078C549.452 374.761 550.182 375.585 550.648 376.858C551.114 378.085 549.654 379.157 548.567 378.613Z" fill="#263238"/>
<path d="M529.168 371.733C530.084 371.888 530.954 371.873 531.87 371.935C532.911 371.997 533.734 372.168 534.666 371.609C535.163 371.314 535.38 370.49 535.132 369.978C534.573 368.782 533.33 368.378 532.088 368.254C530.737 368.114 529.665 368.347 528.516 369.093C527.413 369.807 527.956 371.531 529.168 371.733Z" fill="#263238"/>
<path d="M538.533 400.652C537.912 400.947 537.244 401.413 536.514 401.226C535.815 401.056 535.132 400.481 534.603 400.031C534.557 399.984 534.464 400.031 534.479 400.108C534.728 401.025 535.629 401.848 536.576 402.003C537.508 402.143 538.191 401.537 538.673 400.807C538.735 400.698 538.61 400.621 538.517 400.652H538.533Z" fill="#263238"/>
<path d="M538.471 394.16C536.809 395.464 534.914 395.852 533.082 395.588C532.259 395.48 531.436 395.231 530.675 394.889C530.519 394.827 530.364 394.765 530.24 394.688C530.1 394.625 529.976 394.563 529.836 394.47C529.618 394.361 529.556 394.128 529.603 393.911C529.634 393.833 529.649 393.771 529.696 393.709L529.758 393.523C530.224 392.016 531.14 389.811 531.14 389.811C530.504 389.904 527.304 390.199 527.615 389.438C530.193 383.133 533.066 376.113 536.965 370.366C537.089 370.164 537.399 370.335 537.306 370.537C535.07 376.703 531.762 382.434 529.417 388.584C530.41 388.553 532.072 388.413 532.849 388.693C533.035 388.832 531.001 392.948 530.845 393.631C530.845 393.631 530.845 393.663 530.845 393.709C533.237 394.874 535.38 394.765 538.378 393.911C538.564 393.849 538.673 394.035 538.502 394.144L538.471 394.16Z" fill="#263238"/>
<path d="M531.809 394.439C531.809 394.439 532.523 396.676 534.107 397.934C534.697 398.399 535.381 398.741 536.204 398.788C537.881 398.912 538.409 397.499 538.533 396.194C538.642 395.122 538.471 394.097 538.471 394.097C538.471 394.097 535.489 395.449 531.809 394.439Z" fill="#263238"/>
<path d="M534.107 397.933C534.698 398.399 535.381 398.741 536.204 398.788C537.881 398.912 538.409 397.499 538.534 396.194C536.825 395.806 534.791 396.365 534.107 397.933Z" fill="#FF9ABB"/>
<path d="M566.986 391.022C562.326 390.168 563.662 379.39 563.662 379.39C563.662 379.39 551.455 380.353 554.328 364.806C554.328 364.806 539.838 366.608 532.321 360.38C525.891 355.053 524.493 342.069 531.218 335.857C535.007 332.362 544.093 330.265 554.219 344.818C554.219 344.818 572.685 336.851 574.86 357.662C574.86 357.662 583.06 360.349 582.439 368.736C581.46 381.952 570.977 391.768 566.955 391.022H566.986Z" fill="#263238"/>
<path d="M554.545 363.735C554.623 363.595 554.84 363.688 554.778 363.843C553.303 367.477 551.75 371.438 554.126 375.088C556.44 378.629 560.509 380.368 564.609 379.141C564.842 379.064 564.982 379.436 564.734 379.498C560.851 380.632 556.642 379.343 554.064 376.159C550.989 372.354 552.185 367.571 554.53 363.735H554.545Z" fill="#263238"/>
<path d="M567.111 388.553C574.162 386.534 580.095 382.092 582.114 374.731C583.077 371.221 583.185 367.4 581.524 364.138C580.002 361.141 577.128 359.588 574.706 357.46C574.643 357.398 574.706 357.289 574.799 357.32C590.889 364.993 582.906 387.031 567.297 389.407C566.8 389.485 566.629 388.693 567.111 388.553Z" fill="#263238"/>
<path d="M529.075 335.592C538.16 326.957 550.802 336.524 554.576 345.719C554.576 345.75 554.53 345.781 554.514 345.75C550.849 338.668 541.872 330.654 533.439 333.993C523.251 338.031 523.732 355.13 533.827 358.78C534.138 358.889 533.967 359.417 533.641 359.324C524.182 356.668 522.303 342.022 529.059 335.608L529.075 335.592Z" fill="#263238"/>
<path d="M563.973 392.452C563.973 392.452 572.36 384.189 576.242 387.357C580.11 390.526 572.577 403.339 567.172 404.286C561.768 405.233 560.789 400.248 560.789 400.248L563.973 392.452Z" fill="#AD6359"/>
<path d="M573.991 390.976C574.068 390.976 574.068 391.1 573.991 391.116C570.17 391.892 567.701 394.828 565.759 397.996C567.064 396.878 568.633 396.427 570.155 397.996C570.232 398.074 570.124 398.214 570.03 398.167C568.633 397.592 567.546 397.639 566.35 398.633C565.495 399.332 564.843 400.279 564.16 401.133C563.942 401.413 563.399 401.133 563.585 400.807C563.585 400.776 563.616 400.761 563.632 400.73C564.377 396.195 569.068 390.526 574.006 390.961L573.991 390.976Z" fill="#263238"/>
<path d="M524.09 561.878H399.874V567.438H524.09V561.878Z" fill="#C7C7C7"/>
<path d="M399.874 561.878V567.438H484.316L480.06 561.878H399.874Z" fill="#A6A6A6"/>
<path d="M474.703 567.438H353.639L343.56 485.218H464.623L474.703 567.438Z" fill="#A6A6A6"/>
<path d="M469.127 567.438H348.064L337.984 485.218H459.048L469.127 567.438Z" fill="#C7C7C7"/>
<path d="M410.934 525.473C411.508 529.496 408.961 533.146 405.234 533.627C401.507 534.093 398.028 531.22 397.453 527.182C396.878 523.159 399.425 519.509 403.153 519.028C406.88 518.562 410.359 521.435 410.934 525.473Z" fill="white"/>
<path d="M91.5077 553.305C91.5077 553.305 118.066 547.279 132.618 533.876C147.171 520.457 155.309 496.431 155.309 496.431C155.309 496.431 139.669 499.288 125.52 504.258C123.144 506.805 118.625 512.039 116.512 516.994C116.512 516.994 116.062 511.76 116.435 507.892C112.645 509.632 109.353 511.573 106.977 513.639C94.909 524.2 91.4922 553.32 91.4922 553.32L91.5077 553.305Z" fill="#FFC727"/>
<path d="M138.722 508.11C142.341 505.609 146.021 503.186 149.64 500.655C149.858 500.5 149.64 500.158 149.423 500.298C142.574 504.382 135.833 508.747 129.31 513.328C127.027 514.928 124.806 516.59 122.585 518.283C122.741 518.019 122.896 517.755 123.051 517.491C123.843 516.155 124.682 514.85 125.521 513.546C127.214 510.921 129.062 508.327 131.158 506.013C131.236 505.92 131.096 505.796 131.034 505.889C128.969 508.281 126.903 510.626 125.008 513.157C124.107 514.353 123.284 515.611 122.492 516.885C122.073 517.553 121.685 518.205 121.296 518.888C121.172 519.121 121.032 519.339 120.892 519.572C117.46 522.274 114.121 525.085 110.922 528.052C108.949 529.884 107.054 531.795 105.222 533.751C106.247 530.537 107.148 527.291 108.343 524.122C108.39 524.013 108.204 523.967 108.173 524.076C107.023 527.399 105.75 530.723 104.865 534.14C102.83 536.33 100.889 538.613 99.056 540.989C99.087 540.849 99.1181 540.694 99.1491 540.554C99.4442 539.296 99.7704 538.053 100.097 536.811C100.749 534.404 101.448 532.027 102.255 529.667C103.917 524.837 106.076 520.115 109.384 516.186C109.462 516.093 109.322 515.968 109.26 516.062C104.072 522.196 101.028 529.574 99.087 537.292C98.8075 538.426 98.5279 539.56 98.2794 540.694C98.1396 541.299 97.9843 541.905 97.8756 542.526C97.068 543.614 96.2914 544.701 95.5304 545.834C90.9178 552.699 87.3301 560.201 84.3016 567.873C80.8848 576.524 78.229 585.454 75.7906 594.4C75.744 594.571 76.0081 594.633 76.0702 594.462C81.2575 578.915 86.5691 563.167 95.4528 549.267C97.332 546.331 99.3666 543.505 101.51 540.787C105.874 540.538 110.285 539.591 114.432 538.209C119.013 536.687 123.331 534.575 127.369 531.965C129.714 530.459 131.842 528.688 134.001 526.949C134.094 526.871 134.001 526.731 133.892 526.809C130.304 529.853 125.987 532.229 121.716 534.171C117.429 536.128 112.925 537.665 108.312 538.659C106.355 539.094 104.368 539.405 102.38 539.669C104.833 536.64 107.458 533.751 110.207 530.987C111.108 530.086 112.024 529.232 112.956 528.378C116 526.157 119.386 524.386 122.772 522.755C127.12 520.659 131.407 518.422 135.709 516.233C138.132 514.99 140.555 513.732 143.008 512.536C143.117 512.49 143.008 512.334 142.915 512.381C138.551 514.493 134.125 516.465 129.714 518.484C125.567 520.379 121.374 522.29 117.398 524.526C117.227 524.619 117.072 524.728 116.901 524.821C120.504 521.684 124.216 518.702 128.037 515.829C131.562 513.173 135.134 510.564 138.753 508.063L138.722 508.11Z" fill="#263238"/>
<path d="M137.216 521.808C135.057 522.755 132.851 523.594 130.724 524.588C128.518 525.613 126.437 526.824 124.356 528.051C124.263 528.098 124.356 528.238 124.449 528.191C126.561 527.182 128.705 526.234 130.801 525.178C132.945 524.091 135.072 522.942 137.278 521.979C137.386 521.932 137.34 521.761 137.231 521.808H137.216Z" fill="#263238"/>
<path d="M5.23242 419.475C5.23242 419.475 12.6873 428.017 13.1687 441.529C13.2619 443.905 12.8736 447.229 12.6096 451.127C22.5183 456.407 29.9421 465.943 29.9421 465.943C24.3199 462.558 16.6011 461.206 12.4232 461.75C12.563 464.313 12.8736 466.984 13.4327 469.686C15.2654 469.578 18.822 469.826 24.6927 471.907C24.6927 471.907 18.9307 471.767 14.5354 473.926C19.2724 488.991 33.3434 504.46 72.2017 511.03C72.2017 511.03 79.7032 484.643 65.3215 456.345C53.6734 433.437 5.23242 419.459 5.23242 419.459V419.475Z" fill="#FFC727"/>
<path d="M85.6507 575.483C84.9829 569.053 84.1287 562.639 83.1347 556.24C81.1468 543.443 78.5686 530.723 75.2916 518.205C73.7541 512.303 71.9059 506.51 69.685 500.872C69.8247 499.847 69.8092 498.791 69.8247 497.766C69.8558 496.524 69.8558 495.281 69.8403 494.039C69.8092 491.554 69.7005 489.069 69.4831 486.584C69.0637 481.692 68.3182 476.784 67.0913 472.016C66.3769 469.251 65.5537 466.518 64.7461 463.784C64.7151 463.676 64.5442 463.722 64.5753 463.831C65.942 468.568 66.7341 473.491 67.4485 478.368C68.1474 483.198 68.5823 488.075 68.7531 492.952C68.7997 494.287 68.8308 495.623 68.8308 496.959C68.8308 497.518 68.7997 498.092 68.7842 498.682C66.8739 494.054 64.7151 489.535 62.2301 485.124C58.3163 478.166 53.8124 471.55 48.9356 465.229C48.9822 464.514 48.7648 463.753 48.6095 463.055C48.4231 462.185 48.2368 461.315 48.0504 460.461C47.6466 458.69 47.2117 456.92 46.7303 455.165C45.7673 451.639 44.4938 448.238 43.3911 444.759C43.3601 444.65 43.1892 444.697 43.2203 444.806C44.2453 448.254 44.9287 451.81 45.7208 455.32C46.109 457.06 46.4973 458.784 46.87 460.523C47.0564 461.393 47.2428 462.262 47.4292 463.132C47.4292 463.194 47.4447 463.256 47.4602 463.319C45.8916 461.331 44.2919 459.389 42.6456 457.463C35.2218 448.766 27.0836 440.737 18.8989 432.769C17.8893 431.791 16.8643 430.828 15.8393 429.865C15.7616 429.787 15.6374 429.911 15.715 429.989C23.5426 438.158 31.2459 446.405 38.5455 455.056C40.2849 457.106 41.9933 459.187 43.6707 461.3C42.7854 460.694 41.9001 460.119 41.0149 459.545C38.7474 458.069 36.4643 456.625 34.1036 455.305C31.7429 453.984 29.3667 452.695 26.9439 451.5C24.4589 450.257 21.7876 449.263 19.3803 447.865C19.2716 447.803 19.1939 447.974 19.2871 448.021C21.7721 449.03 24.0862 450.583 26.3848 451.95C28.7455 453.348 31.1062 454.761 33.4358 456.236C35.7188 457.681 38.0174 459.11 40.2849 460.585C42.1797 461.812 44.0434 463.148 46.0003 464.281C50.4887 470.09 54.6976 476.1 58.4561 482.406C60.8168 486.382 62.9601 490.451 64.8859 494.613C64.42 494.411 63.9541 494.21 63.4881 494.008C62.3078 493.48 61.1119 492.952 59.9315 492.424C57.6485 491.414 55.3499 490.42 53.0513 489.426C48.6872 487.531 44.2608 485.792 39.9898 483.711C37.5981 482.546 35.2374 481.319 33.0165 479.843C32.9233 479.781 32.8301 479.937 32.9233 479.999C40.8906 485.497 49.8209 489.364 58.6425 493.262L62.4631 494.955C63.5192 495.421 64.5598 495.934 65.6469 496.353C68.2561 502.177 70.446 508.187 72.2165 514.353C75.7575 526.7 78.4444 539.311 80.6653 551.938C82.9018 564.627 84.3927 577.409 85.5731 590.237C85.7129 591.837 85.8682 593.437 86.039 595.036C86.1167 595.673 87.064 595.673 87.0485 595.005C86.9709 588.498 86.303 581.975 85.6352 575.498L85.6507 575.483Z" fill="#263238"/>
<path d="M62.0129 468.164C61.2985 464.219 60.2424 460.352 59.1863 456.485C59.1553 456.376 58.9844 456.423 59.0155 456.531C59.9939 460.321 60.7083 464.204 61.4072 468.055C62.1372 471.985 62.774 475.929 63.3331 479.89C63.3331 479.952 63.4418 479.952 63.4418 479.89C63.1778 475.96 62.7118 472.047 62.0129 468.18V468.164Z" fill="#263238"/>
<path d="M45.2707 478.881C42.6304 477.017 39.6795 475.604 36.8218 474.128C35.4085 473.398 33.9642 472.699 32.5353 472C31.0599 471.286 29.5223 470.68 28.0469 469.95C27.9382 469.904 27.8605 470.059 27.9537 470.106C29.367 470.82 30.7182 471.674 32.116 472.435C33.5603 473.227 34.9892 474.019 36.4336 474.796C39.2757 476.318 42.0713 478.011 45.0532 479.253C45.3173 479.362 45.4881 479.036 45.2551 478.881H45.2707Z" fill="#263238"/>
<path opacity="0.1" d="M91.9893 507.302C91.9893 507.302 116.559 501.432 127.85 484.953C138.629 469.205 142.108 442.368 142.387 440.007C141.937 442.166 136.874 465.633 120.147 476.551C107.334 484.922 94.9557 491.803 92.0048 507.302H91.9893Z" fill="#263238"/>
<path d="M114.664 464.841C110.346 469.003 107.1 473.911 105.609 479.766C105.609 479.813 105.672 479.844 105.687 479.797C107.535 474.346 110.579 468.957 114.788 464.981C114.866 464.903 114.757 464.763 114.664 464.841Z" fill="#263238"/>
<path d="M91.9894 507.303C91.9894 507.303 116.559 501.432 127.85 484.954C138.629 469.205 142.108 442.368 142.387 440.007C142.403 439.898 142.418 439.836 142.418 439.836C142.418 439.836 130.63 456.594 118.252 460.865C105.858 465.136 88.4483 479.922 92.0049 507.303H91.9894Z" fill="#FFC727"/>
<path d="M138.053 449.077C135.77 453.55 133.379 457.976 130.459 462.061C127.601 466.037 124.169 469.422 120.348 472.467C117.009 475.122 113.484 477.514 110.098 480.123C110.129 480.077 110.144 480.046 110.175 479.999C110.812 479.052 111.496 478.135 112.194 477.25C113.608 475.448 115.145 473.756 116.683 472.078C119.742 468.77 122.849 465.509 125.598 461.921C127.12 459.933 128.44 457.821 129.542 455.569C129.589 455.46 129.418 455.414 129.372 455.507C125.38 463.816 117.428 469.127 111.744 476.147C110.936 477.141 110.175 478.182 109.477 479.254C108.98 480.015 108.389 480.853 108.063 481.754C104.973 484.286 102.115 487.05 99.6765 490.234C99.8784 488.619 100.236 487.019 100.671 485.466C101.276 483.261 102.084 481.195 103.28 479.238C103.342 479.145 103.187 479.036 103.124 479.145C101.975 481.086 100.919 483.167 100.251 485.326C99.7076 487.081 99.4591 488.836 99.3504 490.638C99.3504 490.638 99.3504 490.638 99.3504 490.653C98.1234 492.3 97.0363 494.039 96.0268 495.81C96.1355 495.281 96.2287 494.753 96.3374 494.241C96.8188 491.787 97.3624 489.349 97.9992 486.941C99.2883 482.049 101.028 477.297 103.916 473.103C103.979 473.01 103.839 472.901 103.761 473.01C100.919 477.157 98.7602 481.785 97.2071 486.553C96.4306 488.96 95.7938 491.414 95.2502 493.884C94.9862 495.095 94.7377 496.307 94.5047 497.518C94.3805 498.155 94.2407 498.791 94.1475 499.444C91.6315 504.755 89.8765 510.44 88.4787 516.108C85.9783 526.297 84.4096 536.765 83.2448 547.186C82.0179 558.12 81.3656 569.178 81.5519 580.174C81.5675 581.556 81.6607 582.938 81.7383 584.32C81.7538 584.678 82.2974 584.724 82.313 584.351C82.5615 578.9 82.7012 573.449 83.0119 567.997C83.338 562.546 83.8039 557.11 84.3941 551.674C85.5434 541.02 87.1897 530.366 89.5193 519.898C91.5073 510.906 94.1009 501.867 99.0087 493.992C101.463 490.048 104.413 486.553 107.877 483.447C111.325 480.356 115.083 477.638 118.717 474.781C122.336 471.939 125.8 468.832 128.673 465.214C131.763 461.315 134.202 456.936 136.485 452.525C137.059 451.407 137.665 450.304 138.24 449.201C138.286 449.092 138.147 448.999 138.084 449.108L138.053 449.077Z" fill="#263238"/>
<path d="M133.813 452.68C132.245 456.004 130.334 459.172 128.331 462.247C128.284 462.325 128.393 462.387 128.439 462.325C130.583 459.312 132.369 456.066 133.968 452.742C134.015 452.634 133.844 452.587 133.798 452.68H133.813Z" fill="#263238"/>
<path d="M1.80069 496.431C1.80069 496.431 1.41242 531.36 22.286 541.439C43.1595 551.534 54.3573 543.117 68.5526 546.502C68.5526 546.502 68.5526 546.502 68.5215 546.487C67.9779 545.648 57.8518 531.096 41.7307 527.089C25.1592 522.957 6.80164 510.983 1.78516 496.431H1.80069Z" fill="#FFC727"/>
<path opacity="0.1" d="M1.80069 496.431C1.80069 496.431 1.41242 531.36 22.286 541.439C43.1595 551.534 54.3573 543.117 68.5526 546.502C68.5526 546.502 68.5526 546.502 68.5215 546.487C67.9313 546.207 57.5722 541.02 44.7747 539.482C31.6045 537.898 6.45996 529.31 1.78516 496.431H1.80069Z" fill="black"/>
<path d="M69.9345 547.124C67.4496 544.872 64.654 542.946 61.6255 541.502C61.1751 541.284 60.7247 541.113 60.2587 540.927C60.0413 540.647 59.8083 540.383 59.5599 540.119C58.9386 539.467 58.2863 538.846 57.5874 538.256C56.2828 537.137 54.8851 536.097 53.3941 535.227C49.9307 533.192 46.1411 531.764 42.6001 529.884C42.4914 529.822 42.4137 529.993 42.5069 530.04C44.2619 530.941 45.9548 531.95 47.6476 532.944C49.3095 533.907 50.9868 534.823 52.602 535.864C54.0464 536.796 55.4442 537.821 56.7332 538.954C57.106 539.281 57.4477 539.622 57.8049 539.98C55.5063 539.187 53.1301 538.582 50.7538 538.1C46.9332 537.324 43.066 536.78 39.2454 535.973C37.3662 535.569 35.518 535.072 33.7009 534.482C31.9614 533.084 30.2375 531.702 28.5912 530.195C26.6032 528.362 24.7861 526.39 23.1864 524.216C23.1243 524.122 22.969 524.216 23.0311 524.309C25.6093 527.632 28.3738 530.987 31.5887 533.752C30.6879 533.41 29.8026 533.037 28.9174 532.649C21.8197 529.418 15.5142 524.309 11.1189 517.848C11.0568 517.755 10.9015 517.848 10.9636 517.941C14.7842 523.47 19.6299 528.207 25.3608 531.764C28.234 533.55 31.247 534.994 34.4619 536.066C38.1427 537.293 41.9633 538.023 45.7684 538.737C49.4958 539.436 53.2388 540.15 56.8419 541.377C60.1656 542.511 63.3028 544.157 66.1294 546.254C71.5031 550.277 75.6654 555.79 78.6474 561.769C82.5922 569.706 84.487 578.558 85.5431 587.302C85.5897 587.675 86.1643 587.675 86.1333 587.302C85.1548 572.626 81.2255 557.343 69.919 547.155L69.9345 547.124Z" fill="#263238"/>
<path d="M45.7056 535.724C44.665 534.062 43.0964 532.804 41.419 531.826C39.4466 530.692 37.6761 529.465 36.3093 527.601C36.2472 527.508 36.0919 527.601 36.154 527.695C37.412 529.31 38.9341 530.645 40.658 531.733C42.4751 532.882 44.3233 534 45.5658 535.802C45.6279 535.879 45.7521 535.802 45.69 535.724H45.7056Z" fill="#263238"/>
<path d="M56.7803 572.889L57.7277 592.101L60.6475 650.777H104.445L107.364 592.101L108.312 572.889H56.7803Z" fill="#455A64"/>
<path d="M56.7803 572.889L57.7277 592.101H107.364L108.312 572.889H56.7803Z" fill="#263238"/>
<path d="M53.7048 583.202H111.371V564.876H53.7048V583.202Z" fill="#455A64"/>
<rect width="80" height="32" transform="translate(137.74 153.017)" fill="#FFC801"/>
<path d="M159.178 165.148C159.087 164.341 158.712 163.716 158.053 163.273C157.394 162.824 156.564 162.599 155.564 162.599C154.848 162.599 154.229 162.713 153.706 162.94C153.183 163.162 152.777 163.469 152.487 163.861C152.203 164.247 152.061 164.687 152.061 165.182C152.061 165.596 152.158 165.954 152.351 166.255C152.55 166.557 152.808 166.809 153.127 167.014C153.45 167.213 153.797 167.38 154.166 167.517C154.536 167.648 154.891 167.755 155.232 167.841L156.936 168.284C157.493 168.42 158.064 168.605 158.649 168.838C159.235 169.071 159.777 169.378 160.277 169.758C160.777 170.139 161.181 170.611 161.487 171.173C161.8 171.736 161.956 172.409 161.956 173.193C161.956 174.182 161.7 175.059 161.189 175.827C160.683 176.594 159.948 177.199 158.982 177.642C158.021 178.085 156.86 178.307 155.496 178.307C154.189 178.307 153.058 178.099 152.104 177.684C151.149 177.27 150.402 176.682 149.862 175.92C149.323 175.153 149.024 174.244 148.968 173.193H151.61C151.661 173.824 151.865 174.349 152.223 174.77C152.587 175.184 153.05 175.494 153.612 175.699C154.181 175.898 154.803 175.997 155.479 175.997C156.223 175.997 156.885 175.88 157.465 175.648C158.05 175.409 158.51 175.079 158.845 174.659C159.181 174.233 159.348 173.736 159.348 173.167C159.348 172.65 159.2 172.227 158.905 171.898C158.615 171.568 158.22 171.295 157.72 171.079C157.226 170.863 156.666 170.673 156.041 170.508L153.979 169.946C152.581 169.565 151.473 169.005 150.655 168.267C149.843 167.528 149.436 166.551 149.436 165.335C149.436 164.329 149.709 163.452 150.254 162.702C150.8 161.952 151.539 161.369 152.47 160.954C153.402 160.534 154.453 160.324 155.624 160.324C156.806 160.324 157.848 160.531 158.752 160.946C159.661 161.361 160.377 161.932 160.899 162.659C161.422 163.38 161.695 164.21 161.718 165.148H159.178ZM167.737 178.017L163.884 164.926H166.518L169.083 174.54H169.211L171.785 164.926H174.419L176.975 174.497H177.103L179.651 164.926H182.285L178.441 178.017H175.842L173.183 168.565H172.987L170.328 178.017H167.737ZM184.703 178.017V164.926H187.252V178.017H184.703ZM185.99 162.906C185.547 162.906 185.166 162.758 184.848 162.463C184.536 162.162 184.379 161.804 184.379 161.389C184.379 160.969 184.536 160.611 184.848 160.315C185.166 160.014 185.547 159.863 185.99 159.863C186.433 159.863 186.811 160.014 187.124 160.315C187.442 160.611 187.601 160.969 187.601 161.389C187.601 161.804 187.442 162.162 187.124 162.463C186.811 162.758 186.433 162.906 185.99 162.906ZM196.91 164.926V166.971H189.512V164.926H196.91ZM191.541 178.017V163.409C191.541 162.591 191.72 161.912 192.078 161.372C192.436 160.827 192.91 160.42 193.501 160.153C194.092 159.88 194.734 159.744 195.427 159.744C195.938 159.744 196.376 159.787 196.74 159.872C197.103 159.952 197.373 160.025 197.549 160.094L196.953 162.156C196.833 162.122 196.68 162.082 196.492 162.037C196.305 161.986 196.078 161.96 195.811 161.96C195.191 161.96 194.748 162.113 194.481 162.42C194.22 162.727 194.089 163.17 194.089 163.75V178.017H191.541ZM205.65 164.926V166.971H198.499V164.926H205.65ZM200.417 161.79H202.965V174.173C202.965 174.667 203.039 175.04 203.187 175.29C203.335 175.534 203.525 175.702 203.758 175.792C203.997 175.878 204.255 175.92 204.534 175.92C204.738 175.92 204.917 175.906 205.07 175.878C205.224 175.849 205.343 175.827 205.428 175.809L205.889 177.915C205.741 177.971 205.531 178.028 205.258 178.085C204.985 178.148 204.644 178.182 204.235 178.187C203.565 178.199 202.94 178.079 202.36 177.829C201.781 177.579 201.312 177.193 200.954 176.67C200.596 176.148 200.417 175.491 200.417 174.702V161.79Z" fill="white"/>
<rect width="85" height="32" transform="translate(434.74 220.017)" fill="#385A64"/>
<path d="M446.658 245.017V227.562H449.291V235.898H449.504L456.825 227.562H460.141L453.101 235.42L460.166 245.017H456.996L451.354 237.219L449.291 239.588V245.017H446.658ZM466.944 245.281C465.717 245.281 464.646 245 463.731 244.437C462.816 243.875 462.106 243.088 461.6 242.077C461.095 241.065 460.842 239.883 460.842 238.531C460.842 237.173 461.095 235.986 461.6 234.969C462.106 233.952 462.816 233.162 463.731 232.599C464.646 232.037 465.717 231.755 466.944 231.755C468.171 231.755 469.242 232.037 470.157 232.599C471.072 233.162 471.782 233.952 472.288 234.969C472.794 235.986 473.046 237.173 473.046 238.531C473.046 239.883 472.794 241.065 472.288 242.077C471.782 243.088 471.072 243.875 470.157 244.437C469.242 245 468.171 245.281 466.944 245.281ZM466.953 243.142C467.748 243.142 468.407 242.932 468.93 242.511C469.453 242.091 469.839 241.531 470.089 240.832C470.345 240.133 470.472 239.363 470.472 238.523C470.472 237.687 470.345 236.92 470.089 236.221C469.839 235.517 469.453 234.952 468.93 234.525C468.407 234.099 467.748 233.886 466.953 233.886C466.151 233.886 465.487 234.099 464.958 234.525C464.436 234.952 464.046 235.517 463.791 236.221C463.541 236.92 463.416 237.687 463.416 238.523C463.416 239.363 463.541 240.133 463.791 240.832C464.046 241.531 464.436 242.091 464.958 242.511C465.487 242.932 466.151 243.142 466.953 243.142ZM482.002 231.926V233.971H474.851V231.926H482.002ZM476.769 228.79H479.317V241.173C479.317 241.667 479.391 242.04 479.539 242.29C479.686 242.534 479.877 242.702 480.11 242.792C480.348 242.878 480.607 242.92 480.885 242.92C481.09 242.92 481.269 242.906 481.422 242.878C481.575 242.849 481.695 242.827 481.78 242.809L482.24 244.915C482.093 244.971 481.882 245.028 481.61 245.085C481.337 245.148 480.996 245.182 480.587 245.187C479.916 245.199 479.291 245.079 478.712 244.829C478.132 244.579 477.664 244.193 477.306 243.67C476.948 243.148 476.769 242.491 476.769 241.702V228.79ZM487.65 227.562V245.017H485.102V227.562H487.65ZM491.078 245.017V231.926H493.627V245.017H491.078ZM492.365 229.906C491.922 229.906 491.541 229.758 491.223 229.463C490.911 229.162 490.754 228.804 490.754 228.389C490.754 227.969 490.911 227.611 491.223 227.315C491.541 227.014 491.922 226.863 492.365 226.863C492.808 226.863 493.186 227.014 493.499 227.315C493.817 227.611 493.976 227.969 493.976 228.389C493.976 228.804 493.817 229.162 493.499 229.463C493.186 229.758 492.808 229.906 492.365 229.906ZM499.603 237.244V245.017H497.055V231.926H499.501V234.057H499.663C499.964 233.363 500.436 232.807 501.078 232.386C501.725 231.966 502.541 231.755 503.524 231.755C504.416 231.755 505.197 231.943 505.867 232.318C506.538 232.687 507.058 233.238 507.427 233.971C507.796 234.704 507.981 235.611 507.981 236.69V245.017H505.433V236.997C505.433 236.048 505.186 235.307 504.691 234.773C504.197 234.233 503.518 233.963 502.654 233.963C502.063 233.963 501.538 234.091 501.078 234.346C500.623 234.602 500.262 234.977 499.995 235.471C499.734 235.96 499.603 236.551 499.603 237.244Z" fill="white"/>
<rect width="70" height="32" transform="translate(142.74 321.017)" fill="#FFC801"/>
<path d="M160.308 346.017H154.658V328.562H160.487C162.198 328.562 163.666 328.912 164.894 329.611C166.121 330.304 167.061 331.301 167.715 332.602C168.374 333.898 168.703 335.452 168.703 337.264C168.703 339.082 168.371 340.645 167.706 341.952C167.047 343.258 166.093 344.264 164.843 344.969C163.593 345.667 162.081 346.017 160.308 346.017ZM157.291 343.716H160.164C161.493 343.716 162.598 343.466 163.479 342.966C164.36 342.46 165.019 341.73 165.456 340.775C165.894 339.815 166.112 338.645 166.112 337.264C166.112 335.895 165.894 334.733 165.456 333.778C165.024 332.824 164.379 332.099 163.521 331.605C162.664 331.111 161.598 330.863 160.325 330.863H157.291V343.716ZM175.583 346.307C174.754 346.307 174.004 346.153 173.333 345.846C172.663 345.534 172.132 345.082 171.74 344.491C171.353 343.9 171.16 343.176 171.16 342.318C171.16 341.579 171.302 340.971 171.586 340.494C171.87 340.017 172.254 339.639 172.737 339.361C173.22 339.082 173.759 338.872 174.356 338.73C174.953 338.588 175.561 338.48 176.18 338.406C176.964 338.315 177.6 338.241 178.089 338.184C178.578 338.122 178.933 338.023 179.154 337.886C179.376 337.75 179.487 337.528 179.487 337.221V337.162C179.487 336.417 179.276 335.841 178.856 335.432C178.441 335.023 177.822 334.818 176.998 334.818C176.14 334.818 175.464 335.008 174.97 335.389C174.481 335.764 174.143 336.182 173.955 336.642L171.561 336.096C171.845 335.301 172.259 334.659 172.805 334.17C173.356 333.676 173.99 333.318 174.705 333.096C175.421 332.869 176.174 332.755 176.964 332.755C177.487 332.755 178.041 332.818 178.626 332.943C179.217 333.062 179.768 333.284 180.279 333.608C180.796 333.932 181.22 334.395 181.549 334.997C181.879 335.594 182.044 336.369 182.044 337.324V346.017H179.555V344.227H179.453C179.288 344.557 179.041 344.88 178.711 345.199C178.382 345.517 177.958 345.781 177.441 345.991C176.924 346.202 176.305 346.307 175.583 346.307ZM176.137 344.261C176.842 344.261 177.444 344.122 177.944 343.844C178.45 343.565 178.833 343.202 179.095 342.753C179.362 342.298 179.495 341.812 179.495 341.295V339.608C179.404 339.699 179.228 339.784 178.967 339.863C178.711 339.937 178.419 340.003 178.089 340.059C177.759 340.111 177.438 340.159 177.126 340.204C176.813 340.244 176.552 340.278 176.342 340.307C175.847 340.369 175.396 340.474 174.987 340.622C174.583 340.77 174.259 340.983 174.015 341.261C173.776 341.534 173.657 341.898 173.657 342.352C173.657 342.983 173.89 343.46 174.356 343.784C174.822 344.102 175.416 344.261 176.137 344.261ZM185.438 346.017V332.926H187.901V335.005H188.037C188.276 334.301 188.696 333.747 189.298 333.344C189.906 332.934 190.594 332.73 191.361 332.73C191.52 332.73 191.708 332.736 191.923 332.747C192.145 332.758 192.318 332.773 192.443 332.79V335.227C192.341 335.199 192.159 335.167 191.898 335.133C191.637 335.094 191.375 335.074 191.114 335.074C190.512 335.074 189.975 335.202 189.503 335.457C189.037 335.707 188.668 336.057 188.395 336.505C188.122 336.949 187.986 337.454 187.986 338.023V346.017H185.438ZM201.533 332.926V334.971H194.382V332.926H201.533ZM196.3 329.79H198.848V342.173C198.848 342.667 198.922 343.04 199.07 343.29C199.218 343.534 199.408 343.702 199.641 343.792C199.879 343.878 200.138 343.92 200.416 343.92C200.621 343.92 200.8 343.906 200.953 343.878C201.107 343.849 201.226 343.827 201.311 343.809L201.771 345.915C201.624 345.971 201.414 346.028 201.141 346.085C200.868 346.148 200.527 346.182 200.118 346.187C199.448 346.199 198.823 346.079 198.243 345.829C197.664 345.579 197.195 345.193 196.837 344.67C196.479 344.148 196.3 343.491 196.3 342.702V329.79Z" fill="white"/>
</g>
<defs>
<clipPath id="clip0_638_921">
<rect width="650" height="651.554" fill="white"/>
</clipPath>
</defs>
</svg>
